<svg xmlns="http://www.w3.org/2000/svg" xmlns:xlink="http://www.w3.org/1999/xlink" viewBox="0 0 250 250"><defs><style>.cls-1{fill:url(#linear-gradient);}.cls-2{fill:url(#linear-gradient-2);}.cls-3{fill:url(#linear-gradient-3);}.cls-4{fill:url(#linear-gradient-4);}.cls-5{fill:url(#linear-gradient-5);}.cls-6{fill:url(#linear-gradient-6);}.cls-7{fill:url(#linear-gradient-7);}.cls-8{fill:url(#linear-gradient-8);}</style><linearGradient id="linear-gradient" x1="73.74" y1="62.5" x2="205.86" y2="62.5" gradientUnits="userSpaceOnUse"><stop offset="0" stop-color="#fff"/><stop offset="1" stop-color="#fff" stop-opacity="0.6"/></linearGradient><linearGradient id="linear-gradient-2" x1="187.5" y1="73.72" x2="187.5" y2="205.85" xlink:href="#linear-gradient"/><linearGradient id="linear-gradient-3" x1="62.5" y1="176.26" x2="62.5" y2="44.13" xlink:href="#linear-gradient"/><linearGradient id="linear-gradient-4" x1="176.27" y1="187.5" x2="44.14" y2="187.5" xlink:href="#linear-gradient"/><linearGradient id="linear-gradient-5" x1="318.79" y1="3358.78" x2="271.46" y2="3311.45" gradientTransform="translate(3484.01 -194.01) rotate(90)" xlink:href="#linear-gradient"/><linearGradient id="linear-gradient-6" x1="3358.78" y1="-69.23" x2="3311.45" y2="-116.56" gradientTransform="translate(194.01 3484.01) rotate(-90)" xlink:href="#linear-gradient"/><linearGradient id="linear-gradient-7" x1="3555.73" y1="3167.7" x2="3527.13" y2="3139.1" gradientTransform="translate(3678.02 3290) rotate(180)" xlink:href="#linear-gradient"/><linearGradient id="linear-gradient-8" x1="127.72" y1="127.72" x2="99.12" y2="99.12" xlink:href="#linear-gradient"/></defs><g id="Layer_2" data-name="Layer 2"><g id="Logos"><path class="cls-1" d="M112,7.53,73.74,73.72,125,44.13h0v0L205.86,125h0L138,7.53A15.06,15.06,0,0,0,112,7.53Z"/><path class="cls-2" d="M176.26,73.72,205.86,125h0L125,205.84h0L242.47,138a15.06,15.06,0,0,0,0-26.09Z"/><path class="cls-3" d="M44.14,125,125,44.14h0L7.53,112a15.06,15.06,0,0,0,0,26.09l66.2,38.22L44.14,125h0Z"/><path class="cls-4" d="M125,205.85h0v0L44.16,125h0L112,242.47a15.06,15.06,0,0,0,26.08,0l38.23-66.21Z"/><polygon class="cls-5" points="125.01 125.01 173.5 125.01 125.01 76.51 125.01 125.01"/><polygon class="cls-6" points="125.01 125.01 76.51 125.01 125.01 173.5 125.01 125.01"/><polygon class="cls-7" points="125.01 125.01 125.01 173.5 173.5 125.01 125.01 125.01"/><polygon class="cls-8" points="125.01 125.01 125.01 76.51 76.51 125.01 125.01 125.01"/></g></g></svg>