<svg xmlns="http://www.w3.org/2000/svg" xmlns:xlink="http://www.w3.org/1999/xlink" viewBox="0 0 240 193.32"><defs><style>.cls-1{fill:#fff;}.cls-2{fill:url(#linear-gradient);}.cls-3{fill:url(#linear-gradient-2);}.cls-4{fill:url(#linear-gradient-3);}.cls-5{fill:url(#linear-gradient-4);}.cls-6{fill:url(#linear-gradient-5);}.cls-7{fill:url(#linear-gradient-6);}.cls-8{fill:url(#linear-gradient-7);}.cls-9{fill:url(#linear-gradient-8);}</style><linearGradient id="linear-gradient" x1="95.66" y1="29.48" x2="157.99" y2="29.48" gradientUnits="userSpaceOnUse"><stop offset="0" stop-color="#fff"/><stop offset="1" stop-color="#fff" stop-opacity="0.6"/></linearGradient><linearGradient id="linear-gradient-2" x1="149.32" y1="34.78" x2="149.32" y2="97.11" xlink:href="#linear-gradient"/><linearGradient id="linear-gradient-3" x1="90.35" y1="83.15" x2="90.35" y2="20.82" xlink:href="#linear-gradient"/><linearGradient id="linear-gradient-4" x1="144.03" y1="88.46" x2="81.69" y2="88.46" xlink:href="#linear-gradient"/><linearGradient id="linear-gradient-5" x1="-2003.78" y1="1810.72" x2="-2026.11" y2="1788.4" gradientTransform="translate(1930.67 2062.65) rotate(90)" xlink:href="#linear-gradient"/><linearGradient id="linear-gradient-6" x1="1871.59" y1="2182.38" x2="1849.26" y2="2160.06" gradientTransform="translate(-2062.65 1930.67) rotate(-90)" xlink:href="#linear-gradient"/><linearGradient id="linear-gradient-7" x1="-250.54" y1="3935.63" x2="-264.03" y2="3922.13" gradientTransform="translate(-131.98 3993.32) rotate(180)" xlink:href="#linear-gradient"/><linearGradient id="linear-gradient-8" x1="121.12" y1="60.25" x2="107.63" y2="46.76" xlink:href="#linear-gradient"/></defs><g id="Layer_2" data-name="Layer 2"><g id="Logos"><path class="cls-1" d="M228.85,181a5.87,5.87,0,0,0,5-2.21,9.26,9.26,0,0,0,1.81-5.27c0-.35.05-1,.05-1.81s0-1.51-.05-1.86a8.09,8.09,0,0,0-1.83-5,6.06,6.06,0,0,0-5-2.12,5.8,5.8,0,0,0-5,2.14,10,10,0,0,0-1.71,5.63l0,1.38Q222.08,181,228.85,181Zm-.91,3.72c-3.33,0-5.84-1.08-7.5-3.24a14,14,0,0,1-2.7-8.2l-.05-1.43.05-1.43a14,14,0,0,1,2.72-8.18c1.68-2.17,4.18-3.26,7.48-3.26a9.22,9.22,0,0,1,7.72,3.53v-11a1.08,1.08,0,0,1,.31-.78,1.06,1.06,0,0,1,.79-.31h2.14a1.06,1.06,0,0,1,.79.31,1,1,0,0,1,.31.78v32.1a1,1,0,0,1-.31.78,1.06,1.06,0,0,1-.79.31h-2.05a1,1,0,0,1-.76-.31,1.08,1.08,0,0,1-.28-.78v-2.49A9.26,9.26,0,0,1,227.94,184.74Zm-19.06-14.63V170a8,8,0,0,0-1.81-5.43,6.1,6.1,0,0,0-4.86-2.1,6,6,0,0,0-4.86,2.1,8.14,8.14,0,0,0-1.77,5.43v.15Zm-6.67,14.63a10.27,10.27,0,0,1-7.77-3,12.46,12.46,0,0,1-3.19-8.27l-.05-1.62.05-1.57a12.43,12.43,0,0,1,3.19-8.2,11.5,11.5,0,0,1,15.9.29q2.88,3.33,2.88,9v.86a1.06,1.06,0,0,1-.31.79,1.1,1.1,0,0,1-.79.31H195.58v.43a8.93,8.93,0,0,0,1.91,5.29,5.7,5.7,0,0,0,4.67,2.19,6.76,6.76,0,0,0,3.65-.88,7.75,7.75,0,0,0,2.12-1.84,2.4,2.4,0,0,1,.67-.69,1.9,1.9,0,0,1,.81-.12h2.09a1.15,1.15,0,0,1,.74.24.74.74,0,0,1,.31.62,4.24,4.24,0,0,1-1.29,2.53,10.58,10.58,0,0,1-3.64,2.55A13,13,0,0,1,202.21,184.74Zm-37.22,0a1,1,0,0,1-.78-.31,1,1,0,0,1-.31-.78V160.13a1.06,1.06,0,0,1,.31-.79A1.08,1.08,0,0,1,165,159h2a1,1,0,0,1,1.1,1.1v2.54a10.18,10.18,0,0,1,3.31-2.72,10.43,10.43,0,0,1,4.7-.95,8.89,8.89,0,0,1,7.1,2.93,11.47,11.47,0,0,1,2.52,7.75v13.93a1.06,1.06,0,0,1-1.09,1.09h-2.19a1.06,1.06,0,0,1-.79-.31,1,1,0,0,1-.31-.78V170a7.85,7.85,0,0,0-1.67-5.34,6,6,0,0,0-4.76-1.9,6.35,6.35,0,0,0-4.87,1.93,7.48,7.48,0,0,0-1.81,5.31v13.65a1,1,0,0,1-.31.78,1,1,0,0,1-.78.31Zm-11.42,0a1.06,1.06,0,0,1-1.09-1.09V160.14a1.06,1.06,0,0,1,.31-.79,1.08,1.08,0,0,1,.78-.31h2.1a1.06,1.06,0,0,1,1.1,1.1v23.48a1.08,1.08,0,0,1-.31.78,1.06,1.06,0,0,1-.79.31Zm1.06-34.41,3.05,3-3.05,3.05-3-3.05ZM117,184.7a1.06,1.06,0,0,1-1.1-1.09v-32a1.21,1.21,0,0,1,.29-.84,1.07,1.07,0,0,1,.81-.31h2.24a1.2,1.2,0,0,1,1.19.72l10.15,19.5,10.25-19.5a1.22,1.22,0,0,1,1.14-.72h2.24a1.07,1.07,0,0,1,.81.31,1.21,1.21,0,0,1,.29.84v32a1,1,0,0,1-.31.78,1.06,1.06,0,0,1-.79.31H142a1,1,0,0,1-.76-.31,1.09,1.09,0,0,1-.29-.78V159l-8.15,15.78a1.58,1.58,0,0,1-1.52,1h-1.43a1.65,1.65,0,0,1-1.53-1L120.21,159v24.58a1,1,0,0,1-.31.78,1.06,1.06,0,0,1-.79.31Zm-28.52,0a1.06,1.06,0,0,1-.79-.31,1,1,0,0,1-.31-.78V160.13a1.06,1.06,0,0,1,.31-.79,1.1,1.1,0,0,1,.79-.31h2a1.14,1.14,0,0,1,.82.29,1.09,1.09,0,0,1,.28.81v2.54A10.18,10.18,0,0,1,94.9,160a10.43,10.43,0,0,1,4.7-.95,8.87,8.87,0,0,1,7.1,2.93,11.48,11.48,0,0,1,2.53,7.75v13.93a1.06,1.06,0,0,1-1.1,1.09h-2.19a1.06,1.06,0,0,1-.79-.31,1,1,0,0,1-.31-.78V170a7.85,7.85,0,0,0-1.67-5.34,6,6,0,0,0-4.76-1.9,6.31,6.31,0,0,0-4.86,1.93A7.44,7.44,0,0,0,91.73,170v13.65a1.06,1.06,0,0,1-1.09,1.09ZM77.64,170.11V170a8,8,0,0,0-1.81-5.43,6.1,6.1,0,0,0-4.86-2.1,6,6,0,0,0-4.87,2.1A8.19,8.19,0,0,0,64.34,170v.15ZM71,184.74a10.27,10.27,0,0,1-7.77-3,12.51,12.51,0,0,1-3.2-8.27l0-1.62,0-1.57a12.49,12.49,0,0,1,3.2-8.2A10.25,10.25,0,0,1,71,159q5.23,0,8.12,3.34c1.92,2.22,2.89,5.24,2.89,9v.86a1.06,1.06,0,0,1-1.1,1.1H64.34v.43a8.87,8.87,0,0,0,1.91,5.29,5.69,5.69,0,0,0,4.67,2.19,6.72,6.72,0,0,0,3.64-.88,7.81,7.81,0,0,0,2.13-1.84,2.4,2.4,0,0,1,.66-.69,2,2,0,0,1,.81-.12h2.1A1.17,1.17,0,0,1,81,178a.74.74,0,0,1,.31.62A4.24,4.24,0,0,1,80,181.12a10.68,10.68,0,0,1-3.64,2.55A13.06,13.06,0,0,1,71,184.74ZM44,181a5.78,5.78,0,0,0,5-2.14,10.05,10.05,0,0,0,1.72-5.63c0-.32.05-.78.05-1.38q0-9.15-6.77-9.15a6,6,0,0,0-5,2.21,8.88,8.88,0,0,0-1.79,5.22c0,.35,0,1,0,1.86s0,1.51,0,1.86a8.15,8.15,0,0,0,1.84,5A6.08,6.08,0,0,0,44,181ZM34,193.32a1.09,1.09,0,0,1-.78-.29,1,1,0,0,1-.31-.81V160.13a1,1,0,0,1,.31-.81A1.09,1.09,0,0,1,34,159h2a1,1,0,0,1,1.1,1.1v2.54A9.24,9.24,0,0,1,44.94,159q5,0,7.51,3.17a13.32,13.32,0,0,1,2.65,8.08c0,.35,0,.89,0,1.62s0,1.27,0,1.62a13.37,13.37,0,0,1-2.65,8.06q-2.51,3.19-7.51,3.19a8.94,8.94,0,0,1-7.72-3.62v11.1a1.06,1.06,0,0,1-.31.79,1,1,0,0,1-.78.31ZM13.2,180.78a8.19,8.19,0,0,0,6.1-2.31c1.53-1.54,2.35-3.9,2.48-7.08.06-1.9.1-3.18.1-3.81s0-2-.1-3.81c-.13-3.18-1-5.55-2.48-7.11a8.17,8.17,0,0,0-6.1-2.33,8.25,8.25,0,0,0-6.12,2.33Q4.77,159,4.62,163.77c0,.92,0,2.19,0,3.81s0,2.86,0,3.81q.15,4.77,2.43,7.08A8.28,8.28,0,0,0,13.2,180.78Zm0,4q-6.19,0-9.58-3.27C1.37,179.3.17,176,.05,171.63c0-.95,0-2.3,0-4s0-3.08.05-4c.12-4.33,1.36-7.6,3.69-9.82s5.49-3.34,9.46-3.34,7.12,1.11,9.44,3.34,3.54,5.49,3.67,9.82c.06,1.84.09,3.17.09,4s0,2.14-.09,4q-.19,6.59-3.55,9.84T13.2,184.74Z"/><path class="cls-2" d="M113.68,3.55l-18,31.23,24.17-14h0L158,59h0L126,3.55A7.11,7.11,0,0,0,113.68,3.55Z"/><path class="cls-3" d="M144,34.78,158,59h0L119.84,97.11h0l55.42-32a7.11,7.11,0,0,0,0-12.31Z"/><path class="cls-4" d="M81.69,59l38.14-38.14h0l-55.41,32a7.11,7.11,0,0,0,0,12.31l31.23,18L81.69,59Z"/><path class="cls-5" d="M119.84,97.11h0L81.7,59h0l32,55.42a7.11,7.11,0,0,0,12.31,0l18-31.24Z"/><polygon class="cls-6" points="119.84 58.97 142.72 58.97 119.84 36.1 119.84 58.97"/><polygon class="cls-7" points="119.84 58.97 96.96 58.97 119.84 81.85 119.84 58.97"/><polygon class="cls-8" points="119.84 58.97 119.84 81.85 142.72 58.97 119.84 58.97"/><polygon class="cls-9" points="119.84 58.97 119.84 36.1 96.96 58.97 119.84 58.97"/></g></g></svg>