<svg xmlns="http://www.w3.org/2000/svg" viewBox="0 0 300 76.71"><defs><style>.cls-1{fill:#fff;}</style></defs><g id="Layer_2" data-name="Layer 2"><g id="Logos"><path class="cls-1" d="M290.33,50.08a5.1,5.1,0,0,0,4.34-1.93,8,8,0,0,0,1.57-4.57c0-.3,0-.82,0-1.57s0-1.31,0-1.61A7.11,7.11,0,0,0,294.65,36a5.27,5.27,0,0,0-4.32-1.84A5,5,0,0,0,286,36.06a8.67,8.67,0,0,0-1.49,4.88l0,1.2Q284.46,50.08,290.33,50.08Zm-.79,3.22A7.73,7.73,0,0,1,283,50.49a12.16,12.16,0,0,1-2.33-7.11l0-1.24,0-1.24a12,12,0,0,1,2.35-7.09A7.7,7.7,0,0,1,289.54,31a8,8,0,0,1,6.7,3.06V24.49a.93.93,0,0,1,.27-.69.91.91,0,0,1,.68-.27h1.86a.92.92,0,0,1,.95,1V52.32a.92.92,0,0,1-.95,1h-1.78a.87.87,0,0,1-.66-.27,1,1,0,0,1-.25-.68V50.16A8,8,0,0,1,289.54,53.3ZM273,40.61v-.13a6.94,6.94,0,0,0-1.57-4.71,5.79,5.79,0,0,0-8.43,0,7.08,7.08,0,0,0-1.53,4.71v.13ZM267.23,53.3a8.92,8.92,0,0,1-6.74-2.63,10.84,10.84,0,0,1-2.77-7.17l0-1.4,0-1.37a10.85,10.85,0,0,1,2.77-7.11A8.89,8.89,0,0,1,267.23,31a8.78,8.78,0,0,1,7,2.89,11.59,11.59,0,0,1,2.5,7.85v.75a1,1,0,0,1-.26.68.93.93,0,0,1-.69.27H261.48v.37a7.67,7.67,0,0,0,1.65,4.59,4.94,4.94,0,0,0,4.06,1.9,5.89,5.89,0,0,0,3.16-.76,6.92,6.92,0,0,0,1.84-1.59,1.81,1.81,0,0,1,.58-.6,1.63,1.63,0,0,1,.7-.11h1.82a1,1,0,0,1,.64.21.65.65,0,0,1,.27.54,3.73,3.73,0,0,1-1.12,2.19,9.17,9.17,0,0,1-3.16,2.21A11.25,11.25,0,0,1,267.23,53.3Zm-32.28,0a.92.92,0,0,1-.95-1V32a.9.9,0,0,1,.27-.68A.93.93,0,0,1,235,31h1.78a1,1,0,0,1,.7.24,1,1,0,0,1,.25.71v2.2a8.81,8.81,0,0,1,2.87-2.36,9,9,0,0,1,4.07-.82,7.67,7.67,0,0,1,6.16,2.54A9.92,9.92,0,0,1,253,40.24V52.32a.93.93,0,0,1-.27.68.9.9,0,0,1-.68.27h-1.9a.92.92,0,0,1-1-1V40.48a6.8,6.8,0,0,0-1.45-4.63,5.19,5.19,0,0,0-4.13-1.65,5.54,5.54,0,0,0-4.22,1.67,6.52,6.52,0,0,0-1.57,4.61V52.32a1,1,0,0,1-.26.68.93.93,0,0,1-.69.27Zm-9.9,0a.9.9,0,0,1-.68-.27.93.93,0,0,1-.27-.68V32a.93.93,0,0,1,.27-.69.9.9,0,0,1,.68-.27h1.82a.92.92,0,0,1,.95,1V52.33a.92.92,0,0,1-.95,1ZM226,23.43l2.64,2.65L226,28.72l-2.65-2.64ZM193.3,53.27a.92.92,0,0,1-1-1V24.56a1,1,0,0,1,.25-.73.94.94,0,0,1,.7-.26h1.95a1,1,0,0,1,1,.62l8.8,16.9L214,24.19a1.05,1.05,0,0,1,1-.62h1.94a1,1,0,0,1,.71.26,1.05,1.05,0,0,1,.24.73V52.32a.92.92,0,0,1-.26.68.93.93,0,0,1-.69.27H215a.87.87,0,0,1-.66-.27,1,1,0,0,1-.25-.68V31L207,44.69a1.39,1.39,0,0,1-1.33.87h-1.24a1.42,1.42,0,0,1-1.32-.87l-7-13.68V52.32a.93.93,0,0,1-.27.68.9.9,0,0,1-.68.27Zm-24.73,0a.93.93,0,0,1-.69-.27.92.92,0,0,1-.26-.68V32a.89.89,0,0,1,.26-.68.93.93,0,0,1,.69-.27h1.77a.85.85,0,0,1,.95.95v2.2a8.84,8.84,0,0,1,2.88-2.36,8.94,8.94,0,0,1,4.07-.82,7.68,7.68,0,0,1,6.16,2.54,9.92,9.92,0,0,1,2.19,6.72V52.32a.92.92,0,0,1-1,1h-1.91a.92.92,0,0,1-.95-1V40.48a6.85,6.85,0,0,0-1.44-4.63,5.21,5.21,0,0,0-4.14-1.65A5.52,5.52,0,0,0,173,35.87a6.48,6.48,0,0,0-1.57,4.61V52.32a.92.92,0,0,1-.95,1Zm-9.38-12.66v-.13a6.94,6.94,0,0,0-1.57-4.71,5.79,5.79,0,0,0-8.43,0,7.08,7.08,0,0,0-1.53,4.71v.13ZM153.41,53.3a8.92,8.92,0,0,1-6.74-2.63,10.84,10.84,0,0,1-2.77-7.17l0-1.4,0-1.37a10.85,10.85,0,0,1,2.77-7.11A8.89,8.89,0,0,1,153.41,31a8.78,8.78,0,0,1,7,2.89,11.59,11.59,0,0,1,2.5,7.85v.75a.92.92,0,0,1-.26.68.93.93,0,0,1-.69.27H147.66v.37a7.68,7.68,0,0,0,1.66,4.59,4.91,4.91,0,0,0,4.05,1.9,5.89,5.89,0,0,0,3.16-.76,6.92,6.92,0,0,0,1.84-1.59,1.91,1.91,0,0,1,.58-.6,1.63,1.63,0,0,1,.7-.11h1.82a1,1,0,0,1,.64.21.65.65,0,0,1,.27.54,3.73,3.73,0,0,1-1.12,2.19,9.17,9.17,0,0,1-3.16,2.21A11.25,11.25,0,0,1,153.41,53.3Zm-23.36-3.22a5,5,0,0,0,4.34-1.87,8.63,8.63,0,0,0,1.49-4.87c0-.28,0-.68,0-1.2q0-7.94-5.87-7.94a5.16,5.16,0,0,0-4.36,1.92,7.75,7.75,0,0,0-1.55,4.53c0,.3,0,.84,0,1.61s0,1.31,0,1.61a7.12,7.12,0,0,0,1.59,4.37A5.3,5.3,0,0,0,130.05,50.08Zm-8.72,10.66a1,1,0,0,1-.68-.25.9.9,0,0,1-.27-.7V32a.92.92,0,0,1,.27-.71,1,1,0,0,1,.68-.24h1.74a1,1,0,0,1,.7.24A1,1,0,0,1,124,32v2.2A8,8,0,0,1,130.84,31c2.89,0,5.06.91,6.51,2.75a11.46,11.46,0,0,1,2.29,7c0,.31,0,.77,0,1.41s0,1.1,0,1.4a11.54,11.54,0,0,1-2.29,7q-2.17,2.78-6.51,2.77a7.76,7.76,0,0,1-6.7-3.14v9.63a.91.91,0,0,1-.27.68.9.9,0,0,1-.68.27Zm-18-10.87a7.08,7.08,0,0,0,5.29-2q2-2,2.15-6.14c.06-1.65.08-2.75.08-3.3s0-1.71-.08-3.31Q110.59,31,108.6,29a7.06,7.06,0,0,0-5.29-2A7.15,7.15,0,0,0,98,29q-2,2-2.13,6.16c0,.8,0,1.9,0,3.31s0,2.48,0,3.3c.08,2.76.79,4.81,2.11,6.14A7.15,7.15,0,0,0,103.31,49.87Zm0,3.43q-5.37,0-8.31-2.83c-2-1.89-3-4.74-3.1-8.54,0-.83,0-2,0-3.51s0-2.68,0-3.48q.16-5.61,3.21-8.51a11.39,11.39,0,0,1,8.2-2.9,11.35,11.35,0,0,1,8.19,2.9q3,2.89,3.18,8.51c0,1.6.08,2.76.08,3.48s0,1.86-.08,3.51q-.17,5.7-3.08,8.54C109.66,52.36,106.89,53.3,103.31,53.3Z"/><path class="cls-1" d="M74.4,34.35,54.08,22.62,42.36,2.31a4.63,4.63,0,0,0-8,0L22.63,22.62,2.31,34.35a4.63,4.63,0,0,0,0,8L22.62,54.08,34.35,74.4a4.63,4.63,0,0,0,8,0L54.09,54.08,74.4,42.36A4.63,4.63,0,0,0,74.4,34.35Zm-11.23,4h0l-24.8,24.8h0l-24.8-24.8h0l24.8-24.8h0l24.81,24.8h0Z"/><polygon class="cls-1" points="38.36 23.48 38.36 23.48 23.48 38.36 23.48 38.36 38.36 53.24 38.36 53.24 53.24 38.36 53.24 38.36 38.36 23.48"/></g></g></svg>