<svg xmlns="http://www.w3.org/2000/svg" viewBox="0 0 240 193.32"><defs><style>.cls-1{fill:#fff;}</style></defs><g id="Layer_2" data-name="Layer 2"><g id="Logos"><path class="cls-1" d="M228.85,181a5.86,5.86,0,0,0,5-2.22,9.24,9.24,0,0,0,1.81-5.27c0-.35.05-.95.05-1.81s0-1.51-.05-1.86a8.08,8.08,0,0,0-1.83-5,6.06,6.06,0,0,0-5-2.13,5.8,5.8,0,0,0-5,2.15,9.94,9.94,0,0,0-1.71,5.62l0,1.39Q222.08,181,228.85,181Zm-.91,3.72c-3.33,0-5.84-1.08-7.5-3.24a14,14,0,0,1-2.7-8.2l-.05-1.43.05-1.43a13.94,13.94,0,0,1,2.72-8.18c1.68-2.18,4.18-3.26,7.48-3.26a9.24,9.24,0,0,1,7.72,3.52v-11a1.06,1.06,0,0,1,1.1-1.09h2.14a1.06,1.06,0,0,1,.79.31,1,1,0,0,1,.31.78V183.6a1.06,1.06,0,0,1-1.1,1.1h-2.05a1,1,0,0,1-.76-.31,1.12,1.12,0,0,1-.28-.79v-2.49A9.25,9.25,0,0,1,227.94,184.74ZM208.88,170.1V170a8,8,0,0,0-1.81-5.43,6.1,6.1,0,0,0-4.86-2.1,6,6,0,0,0-4.86,2.1,8.1,8.1,0,0,0-1.77,5.43v.14Zm-6.67,14.64a10.27,10.27,0,0,1-7.77-3,12.48,12.48,0,0,1-3.19-8.27l-.05-1.62.05-1.57a12.41,12.41,0,0,1,3.19-8.2,11.51,11.51,0,0,1,15.9.28q2.88,3.34,2.88,9.06v.86a1,1,0,0,1-.31.78,1.06,1.06,0,0,1-.79.31H195.58v.43a8.91,8.91,0,0,0,1.91,5.29,5.68,5.68,0,0,0,4.67,2.2,6.76,6.76,0,0,0,3.65-.89,7.57,7.57,0,0,0,2.12-1.83,2.4,2.4,0,0,1,.67-.69,1.9,1.9,0,0,1,.81-.12h2.09a1.15,1.15,0,0,1,.74.24.73.73,0,0,1,.31.62,4.19,4.19,0,0,1-1.29,2.52,10.32,10.32,0,0,1-3.64,2.55A12.87,12.87,0,0,1,202.21,184.74Zm-37.22,0a1,1,0,0,1-.78-.31,1.06,1.06,0,0,1-.31-.79V160.13a1.06,1.06,0,0,1,.31-.79A1,1,0,0,1,165,159h2a1,1,0,0,1,1.1,1.1v2.54a10.05,10.05,0,0,1,3.31-2.72,10.3,10.3,0,0,1,4.7-.95,8.86,8.86,0,0,1,7.1,2.93,11.44,11.44,0,0,1,2.52,7.74V183.6a1.06,1.06,0,0,1-.31.79,1,1,0,0,1-.78.31h-2.19a1.06,1.06,0,0,1-1.1-1.1V170a7.85,7.85,0,0,0-1.67-5.34,6,6,0,0,0-4.76-1.91,6.39,6.39,0,0,0-4.87,1.93,7.5,7.5,0,0,0-1.81,5.32V183.6a1.06,1.06,0,0,1-.31.79,1,1,0,0,1-.78.31Zm-11.42,0a1,1,0,0,1-.78-.31,1.06,1.06,0,0,1-.31-.79V160.14a1.06,1.06,0,0,1,.31-.79,1,1,0,0,1,.78-.31h2.1a1.06,1.06,0,0,1,.79.31,1.1,1.1,0,0,1,.31.79v23.47a1.1,1.1,0,0,1-.31.79,1.06,1.06,0,0,1-.79.31Zm1.06-34.41,3.05,3-3.05,3-3-3ZM117,184.7a1.06,1.06,0,0,1-.79-.31,1.1,1.1,0,0,1-.31-.79v-32a1.2,1.2,0,0,1,.29-.83,1,1,0,0,1,.81-.31h2.24a1.2,1.2,0,0,1,1.19.72l10.15,19.49,10.25-19.49a1.22,1.22,0,0,1,1.14-.72h2.24a1,1,0,0,1,.81.31,1.2,1.2,0,0,1,.29.83v32a1.06,1.06,0,0,1-1.1,1.1H142a1,1,0,0,1-.76-.31,1.13,1.13,0,0,1-.29-.79V159l-8.15,15.78a1.58,1.58,0,0,1-1.52,1h-1.43a1.65,1.65,0,0,1-1.53-1L120.21,159V183.6a1.06,1.06,0,0,1-1.1,1.1Zm-28.52,0a1.06,1.06,0,0,1-1.1-1.1V160.13a1.06,1.06,0,0,1,1.1-1.1h2a1.14,1.14,0,0,1,.82.29,1.09,1.09,0,0,1,.28.81v2.54A10.05,10.05,0,0,1,94.9,160a10.3,10.3,0,0,1,4.7-.95,8.84,8.84,0,0,1,7.1,2.93,11.45,11.45,0,0,1,2.53,7.74V183.6a1.1,1.1,0,0,1-.31.79,1.06,1.06,0,0,1-.79.31h-2.19a1.06,1.06,0,0,1-1.1-1.1V170a7.85,7.85,0,0,0-1.67-5.34,6,6,0,0,0-4.76-1.91,6.35,6.35,0,0,0-4.86,1.93A7.46,7.46,0,0,0,91.73,170V183.6a1.06,1.06,0,0,1-.31.79,1,1,0,0,1-.78.31ZM77.64,170.1V170a8,8,0,0,0-1.81-5.43,6.1,6.1,0,0,0-4.86-2.1,6,6,0,0,0-4.87,2.1A8.15,8.15,0,0,0,64.34,170v.14ZM71,184.74a10.27,10.27,0,0,1-7.77-3,12.53,12.53,0,0,1-3.2-8.27l0-1.62,0-1.57a12.47,12.47,0,0,1,3.2-8.2A10.21,10.21,0,0,1,71,159a10.16,10.16,0,0,1,8.12,3.33C81,164.56,82,167.58,82,171.39v.86a1.06,1.06,0,0,1-1.1,1.09H64.34v.43a8.84,8.84,0,0,0,1.91,5.29,5.67,5.67,0,0,0,4.67,2.2,6.72,6.72,0,0,0,3.64-.89,7.63,7.63,0,0,0,2.13-1.83,2.4,2.4,0,0,1,.66-.69,2,2,0,0,1,.81-.12h2.1A1.17,1.17,0,0,1,81,178a.73.73,0,0,1,.31.62A4.19,4.19,0,0,1,80,181.11a10.41,10.41,0,0,1-3.64,2.55A12.9,12.9,0,0,1,71,184.74ZM44,181a5.78,5.78,0,0,0,5-2.15,10,10,0,0,0,1.72-5.62c0-.32.05-.78.05-1.38q0-9.17-6.77-9.16a5.93,5.93,0,0,0-5,2.22,8.88,8.88,0,0,0-1.79,5.22c0,.35,0,1,0,1.86s0,1.51,0,1.86a8.18,8.18,0,0,0,1.84,5A6.08,6.08,0,0,0,44,181ZM34,193.32a1.09,1.09,0,0,1-.78-.29,1,1,0,0,1-.31-.81V160.13a1,1,0,0,1,.31-.81A1.09,1.09,0,0,1,34,159h2a1,1,0,0,1,1.1,1.1v2.54A9.24,9.24,0,0,1,44.94,159c3.34,0,5.84,1.05,7.51,3.17a13.29,13.29,0,0,1,2.65,8.08c0,.34,0,.89,0,1.62s0,1.27,0,1.62a13.34,13.34,0,0,1-2.65,8q-2.51,3.19-7.51,3.2a8.92,8.92,0,0,1-7.72-3.63v11.11a1.06,1.06,0,0,1-.31.79,1.08,1.08,0,0,1-.78.31ZM13.2,180.78a8.19,8.19,0,0,0,6.1-2.31c1.53-1.54,2.35-3.9,2.48-7.08.06-1.91.1-3.18.1-3.81s0-2-.1-3.82c-.13-3.18-1-5.54-2.48-7.1a8.14,8.14,0,0,0-6.1-2.34,8.21,8.21,0,0,0-6.12,2.34c-1.54,1.56-2.36,3.92-2.46,7.1,0,.92,0,2.2,0,3.82s0,2.86,0,3.81q.15,4.77,2.43,7.08A8.28,8.28,0,0,0,13.2,180.78Zm0,4q-6.19,0-9.58-3.27C1.37,179.29.17,176,.05,171.63c0-1,0-2.31,0-4s0-3.09.05-4c.12-4.32,1.36-7.59,3.69-9.82s5.49-3.33,9.46-3.33,7.12,1.11,9.44,3.33,3.54,5.5,3.67,9.82c.06,1.84.09,3.18.09,4s0,2.14-.09,4q-.19,6.57-3.55,9.84T13.2,184.74Z"/><path class="cls-1" d="M175.51,52.81l-31.23-18-18-31.23a7.11,7.11,0,0,0-12.31,0l-18,31.23-31.23,18a7.11,7.11,0,0,0,0,12.31l31.23,18,18,31.23a7.11,7.11,0,0,0,12.31,0l18-31.23,31.23-18A7.11,7.11,0,0,0,175.51,52.81ZM158.25,59h0L120.1,97.11h0L82,59h0l38.14-38.14h0L158.24,59Z"/><polygon class="cls-1" points="120.1 36.09 120.1 36.1 97.22 58.97 97.22 58.97 120.1 81.85 120.1 81.85 142.97 58.97 142.97 58.97 120.1 36.09"/></g></g></svg>