<svg xmlns="http://www.w3.org/2000/svg" viewBox="0 0 250 250"><defs><style>.cls-1{fill:#fff;}</style></defs><g id="Layer_2" data-name="Layer 2"><g id="Logos"><path class="cls-1" d="M242.47,112,176.26,73.72,138,7.53a15.06,15.06,0,0,0-26.08,0L73.74,73.72,7.53,112a15.06,15.06,0,0,0,0,26.09l66.2,38.22L112,242.47a15.06,15.06,0,0,0,26.08,0l38.23-66.21L242.47,138A15.06,15.06,0,0,0,242.47,112ZM205.87,125h0L125,205.84v0h0v0L44.16,125h0L125,44.14v0h0v0L205.86,125h0Z"/><polygon class="cls-1" points="125.01 76.51 125.01 76.51 76.51 125.01 76.51 125.01 125.01 173.5 125.01 173.5 173.5 125.01 173.5 125.01 125.01 76.51"/></g></g></svg>