<svg xmlns="http://www.w3.org/2000/svg" viewBox="0 0 250 44.81"><defs><style>.cls-1{fill:#fff;}</style></defs><g id="Layer_2" data-name="Layer 2"><g id="Logos"><path class="cls-1" d="M238.38,32a6.12,6.12,0,0,0,5.22-2.31,9.69,9.69,0,0,0,1.88-5.48c0-.37.05-1,.05-1.89s0-1.57-.05-1.94a8.43,8.43,0,0,0-1.91-5.24,6.34,6.34,0,0,0-5.19-2.21q-3.57,0-5.21,2.24A10.45,10.45,0,0,0,231.38,21l0,1.44Q231.33,32,238.38,32Zm-.94,3.88c-3.48,0-6.08-1.13-7.82-3.38a14.49,14.49,0,0,1-2.8-8.54l0-1.49,0-1.49a14.48,14.48,0,0,1,2.82-8.52c1.76-2.26,4.36-3.4,7.8-3.4a9.64,9.64,0,0,1,8,3.68V1.27a1.12,1.12,0,0,1,.32-.82,1.11,1.11,0,0,1,.82-.33h2.24a1.11,1.11,0,0,1,.82.33,1.12,1.12,0,0,1,.32.82V34.7a1.1,1.1,0,0,1-1.14,1.14h-2.14a1,1,0,0,1-.79-.32,1.17,1.17,0,0,1-.3-.82V32.1A9.61,9.61,0,0,1,237.44,35.88ZM217.59,20.63v-.15a8.36,8.36,0,0,0-1.89-5.66,6.38,6.38,0,0,0-5.07-2.18,6.28,6.28,0,0,0-5.06,2.18,8.54,8.54,0,0,0-1.84,5.66v.15Zm-7,15.25a10.72,10.72,0,0,1-8.09-3.16,12.93,12.93,0,0,1-3.32-8.61l-.05-1.69.05-1.64a12.92,12.92,0,0,1,3.32-8.54,10.66,10.66,0,0,1,8.09-3.18q5.48,0,8.47,3.48t3,9.43v.9a1.1,1.1,0,0,1-.32.82A1.12,1.12,0,0,1,221,24H203.73v.44a9.29,9.29,0,0,0,2,5.52,5.94,5.94,0,0,0,4.87,2.28,7,7,0,0,0,3.79-.92,8,8,0,0,0,2.21-1.91,2.47,2.47,0,0,1,.7-.72,2.06,2.06,0,0,1,.84-.12h2.19a1.28,1.28,0,0,1,.77.24.81.81,0,0,1,.32.65,4.4,4.4,0,0,1-1.34,2.63,11,11,0,0,1-3.8,2.66A13.58,13.58,0,0,1,210.63,35.88Zm-38.76,0a1.1,1.1,0,0,1-1.14-1.14V10.24a1.1,1.1,0,0,1,1.14-1.14H174a1,1,0,0,1,1.15,1.14v2.65a10.59,10.59,0,0,1,3.45-2.84,10.75,10.75,0,0,1,4.89-1,9.22,9.22,0,0,1,7.39,3.06,11.88,11.88,0,0,1,2.64,8.06V34.7a1.11,1.11,0,0,1-.33.82,1.12,1.12,0,0,1-.82.32h-2.28A1.1,1.1,0,0,1,189,34.7V20.48a8.18,8.18,0,0,0-1.74-5.56,6.25,6.25,0,0,0-5-2,6.63,6.63,0,0,0-5.07,2,7.74,7.74,0,0,0-1.88,5.53V34.7a1.11,1.11,0,0,1-.33.82,1.12,1.12,0,0,1-.82.32Zm-11.9,0a1.11,1.11,0,0,1-1.14-1.14V10.25A1.1,1.1,0,0,1,160,9.11h2.19a1.1,1.1,0,0,1,1.14,1.14V34.71a1.11,1.11,0,0,1-1.14,1.14ZM161.08,0l3.17,3.18-3.17,3.17L157.9,3.18ZM121.84,35.84a1.1,1.1,0,0,1-1.14-1.14V1.35a1.24,1.24,0,0,1,.3-.87,1.11,1.11,0,0,1,.84-.32h2.34a1.25,1.25,0,0,1,1.24.75L136,21.21,146.67.91a1.27,1.27,0,0,1,1.19-.75h2.33a1.12,1.12,0,0,1,.85.32,1.29,1.29,0,0,1,.29.87V34.7a1.1,1.1,0,0,1-.32.82,1.12,1.12,0,0,1-.82.32h-2.28a1.06,1.06,0,0,1-.8-.32,1.16,1.16,0,0,1-.29-.82V9.1l-8.49,16.43a1.66,1.66,0,0,1-1.59,1h-1.49a1.71,1.71,0,0,1-1.59-1L125.22,9.1V34.7a1.1,1.1,0,0,1-1.14,1.14Zm-29.71,0A1.1,1.1,0,0,1,91,34.7V10.24A1.1,1.1,0,0,1,92.13,9.1h2.14a1,1,0,0,1,1.14,1.14v2.65a10.59,10.59,0,0,1,3.45-2.84,10.81,10.81,0,0,1,4.89-1,9.24,9.24,0,0,1,7.4,3.06,11.92,11.92,0,0,1,2.63,8.06V34.7a1.11,1.11,0,0,1-1.15,1.14h-2.28a1.1,1.1,0,0,1-1.14-1.14V20.48a8.18,8.18,0,0,0-1.74-5.56,6.25,6.25,0,0,0-5-2,6.63,6.63,0,0,0-5.07,2,7.79,7.79,0,0,0-1.88,5.53V34.7a1.11,1.11,0,0,1-1.15,1.14ZM80.87,20.63v-.15A8.41,8.41,0,0,0,79,14.82a6.38,6.38,0,0,0-5.07-2.18,6.26,6.26,0,0,0-5.06,2.18A8.49,8.49,0,0,0,67,20.48v.15Zm-7,15.25a10.72,10.72,0,0,1-8.09-3.16,13,13,0,0,1-3.33-8.61l0-1.69,0-1.64a13,13,0,0,1,3.33-8.54,10.66,10.66,0,0,1,8.09-3.18c3.64,0,6.47,1.16,8.47,3.48s3,5.46,3,9.43v.9A1.1,1.1,0,0,1,84.25,24H67v.44A9.22,9.22,0,0,0,69,30a5.92,5.92,0,0,0,4.86,2.28,7.06,7.06,0,0,0,3.8-.92,8.1,8.1,0,0,0,2.21-1.91,2.47,2.47,0,0,1,.7-.72,2.06,2.06,0,0,1,.84-.12H83.6a1.24,1.24,0,0,1,.77.24.79.79,0,0,1,.33.65,4.4,4.4,0,0,1-1.34,2.63,11,11,0,0,1-3.8,2.66A13.58,13.58,0,0,1,73.92,35.88ZM45.87,32c2.39,0,4.12-.74,5.22-2.23a10.44,10.44,0,0,0,1.78-5.86,13.41,13.41,0,0,0,.05-1.44q0-9.54-7.05-9.54a6.16,6.16,0,0,0-5.23,2.31,9.23,9.23,0,0,0-1.87,5.44c0,.37-.05,1-.05,1.94s0,1.57.05,1.93a8.48,8.48,0,0,0,1.92,5.24A6.28,6.28,0,0,0,45.87,32ZM35.4,44.81a1.19,1.19,0,0,1-.82-.29,1.08,1.08,0,0,1-.32-.85V10.24a1.07,1.07,0,0,1,.32-.84,1.15,1.15,0,0,1,.82-.3h2.08a1.14,1.14,0,0,1,.85.3,1.13,1.13,0,0,1,.29.84v2.65a9.65,9.65,0,0,1,8.2-3.83q5.2,0,7.82,3.3a13.93,13.93,0,0,1,2.75,8.42c0,.36,0,.93,0,1.69s0,1.32,0,1.69a14,14,0,0,1-2.75,8.39Q52,35.88,46.82,35.88t-8-3.78V43.67a1.1,1.1,0,0,1-1.14,1.14ZM13.75,31.75a8.57,8.57,0,0,0,6.36-2.4q2.38-2.42,2.58-7.38c.06-2,.1-3.31.1-4s0-2.05-.1-4q-.2-5-2.58-7.4A8.51,8.51,0,0,0,13.75,4.2,8.59,8.59,0,0,0,7.37,6.63C5.77,8.25,4.91,10.72,4.82,14c0,1-.05,2.28-.05,4s0,3,.05,4c.09,3.31.94,5.77,2.53,7.38A8.61,8.61,0,0,0,13.75,31.75Zm0,4.13q-6.45,0-10-3.41T.05,22.22c0-1,0-2.4,0-4.22s0-3.21.05-4.17Q.25,7.08,3.9,3.6T13.75.12Q20,.12,23.58,3.6T27.4,13.83c.07,1.92.1,3.31.1,4.17s0,2.23-.1,4.22q-.2,6.86-3.69,10.25T13.75,35.88Z"/></g></g></svg>