<svg xmlns="http://www.w3.org/2000/svg" viewBox="0 0 220 70.24"><defs><style>.cls-1{fill:#fff;}</style></defs><g id="Layer_2" data-name="Layer 2"><g id="Logos"><path class="cls-1" d="M.46,55.15A1.85,1.85,0,0,1,0,53.88V3.74A2,2,0,0,1,.46,2.39a1.61,1.61,0,0,1,1.23-.5H21.12q8.67,0,13.63,4.19t5,12.17q0,8-5,12.13T21.12,34.53H7.3V53.88a1.71,1.71,0,0,1-1.77,1.77H1.69A1.61,1.61,0,0,1,.46,55.15ZM20.73,28.31q11.6,0,11.6-10.06,0-4.92-2.88-7.53T20.73,8.11H7.3v20.2ZM53.29,69.78a1.48,1.48,0,0,1-.46-1.08,7.87,7.87,0,0,1,.38-1.38l6-14L44.54,18.63a3.5,3.5,0,0,1-.46-1.3,1.83,1.83,0,0,1,.54-1.15,1.45,1.45,0,0,1,1.07-.47h3.53a2,2,0,0,1,1.85,1.23L62.89,45.2,75,16.94a2,2,0,0,1,1.85-1.23h3.45a1.59,1.59,0,0,1,1.54,1.54,3.47,3.47,0,0,1-.39,1.38L59.74,69a3.23,3.23,0,0,1-.8.92,1.93,1.93,0,0,1-1.12.31H54.44A1.59,1.59,0,0,1,53.29,69.78Zm40.47-18.9q-5.54-5.52-5.91-15-.07-2.29-.08-7.22c0-3.33,0-5.73.08-7.22q.3-9.36,5.87-14.85t15.55-5.5a24.33,24.33,0,0,1,11.44,2.46,19.29,19.29,0,0,1,7.07,5.88,12.5,12.5,0,0,1,2.53,6.33V16a1.3,1.3,0,0,1-.5,1,1.67,1.67,0,0,1-1.11.42h-4.3a1.56,1.56,0,0,1-1-.3,2.89,2.89,0,0,1-.65-1.15,12.5,12.5,0,0,0-4.53-6.07q-3.3-2.46-8.91-2.46-6.45,0-10.13,3.53T95.22,21.86q-.07,2.22-.08,6.83t.08,6.84q.23,7.44,3.92,11T109.27,50q6.53,0,10.45-3.57t3.91-10.71V32.45H111.88a1.63,1.63,0,0,1-1.26-.53,1.84,1.84,0,0,1-.5-1.31v-2.3a1.84,1.84,0,0,1,.5-1.31,1.66,1.66,0,0,1,1.26-.53h17.2a1.84,1.84,0,0,1,1.35.49,1.86,1.86,0,0,1,.5,1.35V35.6a22.49,22.49,0,0,1-2.58,10.95,17.61,17.61,0,0,1-7.48,7.29,24.63,24.63,0,0,1-11.6,2.57Q99.3,56.41,93.76,50.88Zm47,4.27a1.74,1.74,0,0,1-.49-1.27V17.56a1.87,1.87,0,0,1,.49-1.31,1.71,1.71,0,0,1,1.27-.54h3.23a1.82,1.82,0,0,1,1.34.5,1.86,1.86,0,0,1,.5,1.35v3.38q3.15-5.22,10.67-5.23h3a1.61,1.61,0,0,1,1.76,1.77v2.84a1.79,1.79,0,0,1-.46,1.27,1.68,1.68,0,0,1-1.3.5h-4.38a8.89,8.89,0,0,0-6.64,2.46,9.11,9.11,0,0,0-2.42,6.68V53.88a1.67,1.67,0,0,1-.54,1.27,1.85,1.85,0,0,1-1.3.5H142A1.75,1.75,0,0,1,140.71,55.15Zm28.11,0a1.75,1.75,0,0,1-.5-1.27V17.48a1.75,1.75,0,0,1,.5-1.27,1.72,1.72,0,0,1,1.27-.5h3.38a1.71,1.71,0,0,1,1.76,1.77v36.4a1.71,1.71,0,0,1-1.76,1.77h-3.38A1.72,1.72,0,0,1,168.82,55.15Zm19.66-4q-4-5.22-4.34-13.21l-.08-2.3.08-2.3a22.25,22.25,0,0,1,4.38-13.17q4.06-5.27,12-5.26T213,20.63V2.89a1.71,1.71,0,0,1,1.77-1.77h3.45A1.71,1.71,0,0,1,220,2.89v51a1.71,1.71,0,0,1-1.77,1.77h-3.3a1.61,1.61,0,0,1-1.23-.5,1.85,1.85,0,0,1-.46-1.27v-3.3q-4.38,5.84-12.67,5.83C195.2,56.41,191.16,54.67,188.48,51.19Zm21.61-4.34A14.9,14.9,0,0,0,213,38.37c.05-.57.08-1.54.08-2.92s0-2.43-.08-3a13.12,13.12,0,0,0-2.95-8.1q-2.81-3.41-8-3.41c-3.69,0-6.37,1.15-8.06,3.45a16.2,16.2,0,0,0-2.77,9.06l-.07,2.23q0,14.74,10.9,14.74Q207.4,50.42,210.09,46.85ZM167.37,7.46V2.51L171.69,0,176,2.51v5L171.69,10Z"/></g></g></svg>