<svg xmlns="http://www.w3.org/2000/svg" viewBox="0 0 160 230.38"><g id="Layer_2" data-name="Layer 2"><g id="Logos"><path d="M.34,219.41a1.3,1.3,0,0,1-.34-.93V182a1.36,1.36,0,0,1,.34-1,1.15,1.15,0,0,1,.89-.36H15.36q6.32,0,9.91,3t3.6,8.85q0,5.81-3.6,8.82t-9.91,3h-10v14.07a1.28,1.28,0,0,1-.37.93,1.25,1.25,0,0,1-.92.36H1.23A1.15,1.15,0,0,1,.34,219.41Zm14.74-19.52q8.43,0,8.43-7.32a7,7,0,0,0-2.09-5.47q-2.1-1.9-6.34-1.9H5.31v14.69ZM38.76,230a1,1,0,0,1-.34-.78,6.09,6.09,0,0,1,.28-1L43.06,218,32.39,192.85a2.62,2.62,0,0,1-.33-.95,1.32,1.32,0,0,1,.39-.84,1.07,1.07,0,0,1,.78-.33H35.8a1.44,1.44,0,0,1,1.34.89l8.6,20.55,8.82-20.55a1.44,1.44,0,0,1,1.34-.89h2.52a1.08,1.08,0,0,1,.78.33,1.1,1.1,0,0,1,.33.78,2.5,2.5,0,0,1-.28,1l-15.8,36.64a2.48,2.48,0,0,1-.59.67,1.39,1.39,0,0,1-.81.22H39.6A1.11,1.11,0,0,1,38.76,230Zm29.43-13.73q-4-4-4.3-10.89-.06-1.68-.06-5.25t.06-5.25q.23-6.82,4.27-10.81t11.31-4a17.74,17.74,0,0,1,8.32,1.78,14.16,14.16,0,0,1,5.14,4.28,9,9,0,0,1,1.84,4.6v.12a1,1,0,0,1-.36.75,1.24,1.24,0,0,1-.81.31H90.47a1.1,1.1,0,0,1-.75-.23,2,2,0,0,1-.48-.83A9.1,9.1,0,0,0,86,186.48a10.62,10.62,0,0,0-6.48-1.78,10.18,10.18,0,0,0-7.37,2.57q-2.68,2.56-2.85,7.93c0,1.08-.06,2.73-.06,5s0,3.85.06,5q.16,5.42,2.85,8a10.18,10.18,0,0,0,7.37,2.57,10.86,10.86,0,0,0,7.6-2.59c1.89-1.74,2.84-4.33,2.84-7.8v-2.4H81.37a1.2,1.2,0,0,1-.92-.39,1.31,1.31,0,0,1-.36-.95v-1.67a1.31,1.31,0,0,1,.36-.95,1.2,1.2,0,0,1,.92-.39H93.88a1.35,1.35,0,0,1,1,.36,1.33,1.33,0,0,1,.36,1v5.3a16.34,16.34,0,0,1-1.87,8,12.87,12.87,0,0,1-5.45,5.31,18,18,0,0,1-8.43,1.87Q72.21,220.33,68.19,216.31Zm34.15,3.1a1.27,1.27,0,0,1-.36-.93V192.07a1.36,1.36,0,0,1,.36-.95,1.2,1.2,0,0,1,.92-.39h2.35a1.32,1.32,0,0,1,1,.36,1.34,1.34,0,0,1,.37,1v2.46c1.52-2.54,4.11-3.8,7.76-3.8h2.18a1.15,1.15,0,0,1,1.28,1.28v2.07a1.31,1.31,0,0,1-.33.92,1.24,1.24,0,0,1-1,.36H113.7a6.48,6.48,0,0,0-4.83,1.79,6.63,6.63,0,0,0-1.76,4.86v16.47a1.22,1.22,0,0,1-.39.93,1.36,1.36,0,0,1-1,.36h-2.51A1.25,1.25,0,0,1,102.34,219.41Zm20.44,0a1.27,1.27,0,0,1-.36-.93V192a1.23,1.23,0,0,1,1.28-1.28h2.46a1.23,1.23,0,0,1,1.28,1.28v26.47a1.27,1.27,0,0,1-.36.93,1.25,1.25,0,0,1-.92.36H123.7A1.25,1.25,0,0,1,122.78,219.41Zm14.3-2.88a16.29,16.29,0,0,1-3.16-9.61l-.06-1.67.06-1.68A16.27,16.27,0,0,1,137.1,194q3-3.83,8.77-3.83a10.86,10.86,0,0,1,9,4.13V181.4a1.23,1.23,0,0,1,1.28-1.28h2.52a1.27,1.27,0,0,1,.92.36,1.25,1.25,0,0,1,.36.92v37.08a1.23,1.23,0,0,1-1.28,1.29h-2.41a1.15,1.15,0,0,1-.89-.36,1.34,1.34,0,0,1-.33-.93v-2.4q-3.19,4.24-9.22,4.25Q140,220.33,137.08,216.53Zm15.72-3.16a10.83,10.83,0,0,0,2.12-6.17c0-.41.05-1.11.05-2.12s0-1.77-.05-2.18a9.55,9.55,0,0,0-2.15-5.89,7.12,7.12,0,0,0-5.84-2.48c-2.68,0-4.63.83-5.86,2.51a11.68,11.68,0,0,0-2,6.59l-.06,1.62Q139,216,146.93,216A6.87,6.87,0,0,0,152.8,213.37Zm-31.07-28.64v-3.6l3.14-1.83,3.16,1.83v3.6l-3.16,1.83Z"/><polygon points="50.32 56.08 50.31 90.35 80 107.48 109.67 90.35 109.68 56.08 80 38.94 50.32 56.08"/><polygon points="105.02 14.45 80 0 54.97 14.45 80 28.9 105.02 14.45"/><polygon points="114.33 19.83 89.31 34.28 114.34 48.73 139.36 34.28 114.33 19.83"/><polygon points="45.66 19.83 20.63 34.28 45.66 48.73 70.69 34.28 45.66 19.83"/><polygon points="118.99 96.45 118.99 125.35 144.02 110.9 144.02 82 118.99 96.45"/><polygon points="84.66 116.27 84.66 145.16 109.68 130.72 109.68 101.83 84.66 116.27"/><polygon points="144.02 42.34 118.99 56.8 118.99 85.7 144.02 71.25 144.02 42.34"/><polygon points="15.98 110.9 41 125.35 41.01 96.45 15.98 82 15.98 110.9"/><polygon points="15.98 71.25 41.01 85.7 41.01 56.8 15.98 42.35 15.98 71.25"/><polygon points="50.32 101.83 50.32 130.72 75.35 145.18 75.34 116.27 50.32 101.83"/></g></g></svg>