<svg xmlns="http://www.w3.org/2000/svg" viewBox="0 0 220 249.44"><defs><style>.cls-1{fill:#fff;}.cls-2{opacity:0.6;}.cls-3{opacity:0.8;}</style></defs><g id="Layer_2" data-name="Layer 2"><g id="Logos"><polygon class="cls-1" points="160.99 96.35 110 66.91 59.01 96.35 110 125.8 160.99 96.35"/><polygon class="cls-1" points="110 49.66 67 24.82 110 0 152.99 24.83 110 49.66"/><polygon class="cls-1" points="169 83.72 211.99 58.89 168.99 34.07 126 58.89 169 83.72"/><polygon class="cls-1" points="94 58.89 51 34.07 7.99 58.89 51 83.72 94 58.89"/><g class="cls-2"><polygon class="cls-1" points="160.98 96.35 110 125.78 110 184.67 160.98 155.24 160.98 96.35"/><polygon class="cls-1" points="176.99 165.71 220 140.89 220 190.54 176.99 215.36 176.99 165.71"/><polygon class="cls-1" points="118 199.77 118.01 249.41 160.99 224.6 160.99 174.95 118 199.77"/><polygon class="cls-1" points="220 72.75 176.99 97.59 176.99 147.24 219.99 122.42 220 72.75"/></g><g class="cls-3"><polygon class="cls-1" points="43 215.37 0 190.54 0 140.89 43 165.71 43 215.37"/><polygon class="cls-1" points="0.01 122.42 43 147.24 43.01 97.59 0.01 72.77 0.01 122.42"/><polygon class="cls-1" points="102 199.77 59 174.95 59 224.6 102.01 249.44 102 199.77"/><polygon class="cls-1" points="110 125.79 59 96.35 58.99 155.23 109.99 184.67 110 125.79"/></g></g></g></svg>