<svg xmlns="http://www.w3.org/2000/svg" viewBox="0 0 250 100.76"><defs><style>.cls-1{fill:#fff;}.cls-2{opacity:0.6;}.cls-3{opacity:0.8;}</style></defs><g id="Layer_2" data-name="Layer 2"><g id="Logos"><polygon class="cls-1" points="65.03 38.92 44.43 27.03 23.84 38.92 44.43 50.81 65.03 38.92"/><polygon class="cls-1" points="44.43 20.06 27.06 10.03 44.43 0 61.8 10.03 44.43 20.06"/><polygon class="cls-1" points="68.26 33.82 85.63 23.79 68.26 13.76 50.9 23.79 68.26 33.82"/><polygon class="cls-1" points="37.97 23.79 20.6 13.76 3.23 23.79 20.6 33.82 37.97 23.79"/><g class="cls-2"><polygon class="cls-1" points="65.03 38.92 44.43 50.81 44.43 74.59 65.03 62.71 65.03 38.92"/><polygon class="cls-1" points="71.49 66.94 88.87 56.91 88.86 76.97 71.49 86.99 71.49 66.94"/><polygon class="cls-1" points="47.67 80.69 47.67 100.75 65.03 90.72 65.03 70.67 47.67 80.69"/><polygon class="cls-1" points="88.86 29.39 71.49 39.42 71.49 59.48 88.86 49.45 88.86 29.39"/></g><g class="cls-3"><polygon class="cls-1" points="17.37 87 0 76.97 0 56.91 17.37 66.94 17.37 87"/><polygon class="cls-1" points="0 49.45 17.37 59.48 17.37 39.42 0 29.39 0 49.45"/><polygon class="cls-1" points="41.2 80.69 23.83 70.67 23.83 90.72 41.2 100.76 41.2 80.69"/><polygon class="cls-1" points="44.43 50.81 23.83 38.92 23.83 62.7 44.43 74.6 44.43 50.81"/></g><path class="cls-1" d="M111.78,64.67a1.16,1.16,0,0,1-.29-.8V32.3a1.23,1.23,0,0,1,.29-.85,1.06,1.06,0,0,1,.78-.31h12.23q5.46,0,8.58,2.63t3.12,7.67q0,5-3.12,7.64t-8.58,2.61h-8.7V63.87a1.09,1.09,0,0,1-.32.8A1.06,1.06,0,0,1,115,65h-2.42A1,1,0,0,1,111.78,64.67Zm12.77-16.9q7.29,0,7.3-6.33A6.08,6.08,0,0,0,130,36.7c-1.2-1.1-3-1.64-5.48-1.64h-8.46V47.77ZM145,73.88a.94.94,0,0,1-.28-.68,4.53,4.53,0,0,1,.24-.87l3.77-8.85-9.24-21.8a2.34,2.34,0,0,1-.29-.82,1.27,1.27,0,0,1,.34-.73,1,1,0,0,1,.68-.29h2.22a1.23,1.23,0,0,1,1.16.78l7.45,17.79,7.64-17.79a1.23,1.23,0,0,1,1.16-.78h2.17a.94.94,0,0,1,.68.29,1,1,0,0,1,.29.68,2.25,2.25,0,0,1-.24.87L149.11,73.39a2.13,2.13,0,0,1-.51.58,1.16,1.16,0,0,1-.7.2h-2.13A1,1,0,0,1,145,73.88ZM170.52,62a13.55,13.55,0,0,1-3.72-9.42c0-1-.05-2.48-.05-4.55s0-3.61.05-4.54a13.2,13.2,0,0,1,3.7-9.36q3.51-3.45,9.79-3.45a15.36,15.36,0,0,1,7.2,1.54,12.26,12.26,0,0,1,4.45,3.7,7.85,7.85,0,0,1,1.59,4V40a.81.81,0,0,1-.31.65,1,1,0,0,1-.7.27h-2.71a1,1,0,0,1-.65-.2,1.79,1.79,0,0,1-.41-.72,7.89,7.89,0,0,0-2.85-3.82,9.22,9.22,0,0,0-5.61-1.55,8.83,8.83,0,0,0-6.38,2.22q-2.32,2.23-2.47,6.87c0,.94-.05,2.37-.05,4.3s0,3.34.05,4.3q.15,4.69,2.47,6.92a8.83,8.83,0,0,0,6.38,2.22,9.36,9.36,0,0,0,6.57-2.25q2.47-2.23,2.47-6.74V50.38h-7.4a1,1,0,0,1-.79-.34,1.12,1.12,0,0,1-.32-.82V47.77a1.12,1.12,0,0,1,.32-.82,1,1,0,0,1,.79-.34h10.83a1.18,1.18,0,0,1,.85.31,1.16,1.16,0,0,1,.31.85v4.59a14.17,14.17,0,0,1-1.62,6.89,11,11,0,0,1-4.71,4.59,15.42,15.42,0,0,1-7.3,1.62Q174,65.46,170.52,62Zm29.56,2.69a1.09,1.09,0,0,1-.31-.8V41a1.16,1.16,0,0,1,.31-.82,1.07,1.07,0,0,1,.8-.34h2a1.15,1.15,0,0,1,.85.32,1.13,1.13,0,0,1,.31.84v2.13q2-3.29,6.72-3.29h1.89a1.12,1.12,0,0,1,.82.29,1.14,1.14,0,0,1,.29.82v1.79a1.14,1.14,0,0,1-.29.8,1.06,1.06,0,0,1-.82.31h-2.76a5.61,5.61,0,0,0-4.18,1.55,5.77,5.77,0,0,0-1.52,4.21V63.87a1.07,1.07,0,0,1-.34.8,1.16,1.16,0,0,1-.82.31h-2.18A1.09,1.09,0,0,1,200.08,64.67Zm17.7,0a1.09,1.09,0,0,1-.32-.8V41a1.09,1.09,0,0,1,1.12-1.11h2.12a1.09,1.09,0,0,1,.8.32,1.06,1.06,0,0,1,.31.79V63.87A1.06,1.06,0,0,1,220.7,65h-2.12A1.07,1.07,0,0,1,217.78,64.67Zm12.37-2.49a14.17,14.17,0,0,1-2.73-8.32l0-1.45,0-1.45a14.07,14.07,0,0,1,2.76-8.29q2.56-3.31,7.59-3.31a9.37,9.37,0,0,1,7.83,3.58V31.77a1.06,1.06,0,0,1,1.11-1.11h2.18A1.06,1.06,0,0,1,250,31.77v32.1A1.06,1.06,0,0,1,248.89,65h-2.08a1,1,0,0,1-.77-.31,1.11,1.11,0,0,1-.29-.8V61.79a9.37,9.37,0,0,1-8,3.67C234.38,65.46,231.85,64.37,230.15,62.18Zm13.61-2.73a9.41,9.41,0,0,0,1.84-5.35c0-.35.05-1,.05-1.83s0-1.53-.05-1.89a8.21,8.21,0,0,0-1.86-5.1,6.18,6.18,0,0,0-5.05-2.15c-2.32,0-4,.72-5.08,2.18a10.2,10.2,0,0,0-1.74,5.7l-.05,1.4q0,9.29,6.87,9.28A5.94,5.94,0,0,0,243.76,59.45Zm-26.89-24.8V31.53L219.59,30l2.73,1.58v3.12l-2.73,1.58Z"/></g></g></svg>