<svg xmlns="http://www.w3.org/2000/svg" viewBox="0 0 220 249.44"><g id="Layer_2" data-name="Layer 2"><g id="Logos"><polygon points="59.01 96.35 58.99 155.23 110 184.67 160.98 155.24 160.99 96.35 110 66.91 59.01 96.35"/><polygon points="152.99 24.83 110 0 67 24.82 110 49.66 152.99 24.83"/><polygon points="168.99 34.07 126 58.89 168.99 83.72 211.99 58.89 168.99 34.07"/><polygon points="51 34.07 7.99 58.89 51 83.72 94 58.89 51 34.07"/><polygon points="176.99 165.71 176.99 215.36 220 190.54 220 140.89 176.99 165.71"/><polygon points="118 199.77 118.01 249.41 160.99 224.6 160.99 174.95 118 199.77"/><polygon points="220 72.75 176.99 97.59 176.99 147.24 219.99 122.42 220 72.75"/><polygon points="0 190.54 43 215.37 43 165.71 0 140.89 0 190.54"/><polygon points="0 122.42 43 147.24 43.01 97.59 0.01 72.77 0 122.42"/><polygon points="59 174.95 59 224.6 102.01 249.44 102 199.77 59 174.95"/></g></g></svg>