<svg xmlns="http://www.w3.org/2000/svg" viewBox="0 0 147.15 221.1"><defs><style>.cls-1{fill:#333;}.cls-2{fill:#c8bc87;}.cls-3{fill:#daba81;}.cls-4{fill:#efbd79;}.cls-5{fill:#fdc073;}.cls-6{fill:#f2aa70;}.cls-7{fill:#ed9769;}.cls-8{fill:#df7d6a;}.cls-9{fill:#c55a73;}.cls-10{fill:#c55875;}.cls-11{fill:#b3577e;}.cls-12{fill:#896c96;}.cls-13{fill:#a15f89;}.cls-14{fill:#5cadb2;}.cls-15{fill:#66a3ad;}.cls-16{fill:#7696a5;}.cls-17{fill:#8d8598;}.cls-18{fill:#92c29f;}.cls-19{fill:#aacc98;}.cls-20{fill:#b8cf97;}.cls-21{fill:#87b4a2;}</style></defs><g id="Layer_2" data-name="Layer 2"><g id="Logos"><path class="cls-1" d="M30.13,210.31a11.45,11.45,0,0,1-4.82-3.59,8.49,8.49,0,0,1-1.76-4.79,1,1,0,0,1,.32-.74,1.06,1.06,0,0,1,.78-.31h2.57a1.34,1.34,0,0,1,1.31,1.05,6.28,6.28,0,0,0,2.69,3.79,10.8,10.8,0,0,0,6.37,1.6c3,0,5.18-.52,6.65-1.57a5,5,0,0,0,2.2-4.35,4.16,4.16,0,0,0-1.07-2.93,9,9,0,0,0-3.2-2q-2.12-.85-6.36-2.12a32.07,32.07,0,0,1-6.42-2.46,9.6,9.6,0,0,1-3.59-3.22,9,9,0,0,1-1.2-4.85,8.69,8.69,0,0,1,1.52-5.05,10.22,10.22,0,0,1,4.4-3.51A16.55,16.55,0,0,1,37.33,174a15.62,15.62,0,0,1,7,1.44A11.48,11.48,0,0,1,48.75,179a8.33,8.33,0,0,1,1.62,4.37,1.06,1.06,0,0,1-.31.79,1.08,1.08,0,0,1-.79.31H46.65a1.26,1.26,0,0,1-.78-.26,1.4,1.4,0,0,1-.53-.78,5.3,5.3,0,0,0-2.51-3.72,9.7,9.7,0,0,0-5.5-1.47,10.17,10.17,0,0,0-5.66,1.39,4.61,4.61,0,0,0-2.09,4.11,4.53,4.53,0,0,0,1,3,8.15,8.15,0,0,0,3,2,51.72,51.72,0,0,0,5.89,2,42.35,42.35,0,0,1,7,2.52,9.5,9.5,0,0,1,3.79,3.11,8.39,8.39,0,0,1,1.26,4.8,9,9,0,0,1-3.74,7.67q-3.75,2.75-10.14,2.75A18.75,18.75,0,0,1,30.13,210.31Z"/><path class="cls-1" d="M59.9,220.78a1,1,0,0,1-.31-.73,4.54,4.54,0,0,1,.26-.94l4.09-9.59-10-23.62a2.42,2.42,0,0,1-.31-.89,1.24,1.24,0,0,1,.36-.79,1,1,0,0,1,.74-.31h2.41a1.34,1.34,0,0,1,1.25.84L66.45,204l8.28-19.27a1.33,1.33,0,0,1,1.25-.84h2.36a1,1,0,0,1,.73.31,1,1,0,0,1,.32.74,2.48,2.48,0,0,1-.26.94L64.3,220.26a2.18,2.18,0,0,1-.55.63,1.25,1.25,0,0,1-.76.21h-2.3A1.07,1.07,0,0,1,59.9,220.78Z"/><path class="cls-1" d="M88.06,210.81a1.18,1.18,0,0,1-.34-.87v-22H83.21a1.21,1.21,0,0,1-.86-.31,1.08,1.08,0,0,1-.34-.84v-1.68a1.16,1.16,0,0,1,1.2-1.2h4.51v-2.62a9.55,9.55,0,0,1,2.07-6.57c1.37-1.56,3.64-2.34,6.78-2.34h3.09a1.18,1.18,0,0,1,1.2,1.21v1.68a1.06,1.06,0,0,1-.34.83,1.2,1.2,0,0,1-.86.32h-3a3.94,3.94,0,0,0-3.35,1.26,6.43,6.43,0,0,0-.94,3.87v2.36h6.76a1.17,1.17,0,0,1,.86.34,1.15,1.15,0,0,1,.34.86v1.68a1.08,1.08,0,0,1-.34.84,1.23,1.23,0,0,1-.86.31H92.38v22a1.16,1.16,0,0,1-1.21,1.21H88.92A1.18,1.18,0,0,1,88.06,210.81Z"/><path class="cls-1" d="M108.72,202v-14h-4.14a1.08,1.08,0,0,1-1.15-1.15v-1.68a1.18,1.18,0,0,1,.32-.86,1,1,0,0,1,.83-.34h4.14v-8.75a1.2,1.2,0,0,1,.32-.86,1,1,0,0,1,.83-.34h2.31a1.16,1.16,0,0,1,1.2,1.2v8.75h6.5a1.16,1.16,0,0,1,1.2,1.2v1.68a1.08,1.08,0,0,1-.34.84,1.21,1.21,0,0,1-.86.31h-6.5v13.67a7.6,7.6,0,0,0,.87,4,3.24,3.24,0,0,0,3,1.36h3.19a1.08,1.08,0,0,1,.84.34,1.21,1.21,0,0,1,.31.86v1.73a1.24,1.24,0,0,1-.31.87,1.11,1.11,0,0,1-.84.34h-3.56Q108.73,211.15,108.72,202Z"/><polygon class="cls-2" points="92.75 45.78 109.59 58.01 109.59 51.24 92.75 45.78"/><polygon class="cls-3" points="59.82 35.07 66.24 37.16 108.18 43.21 105.16 33.93 59.82 35.07"/><polygon class="cls-4" points="42 33.93 51.75 33.93 101.36 26.72 94.23 15 42 33.93"/><polygon class="cls-5" points="73.56 0 20.64 38.45 33.96 35.3 87.7 10.26 73.56 0"/><polygon class="cls-6" points="49.44 49.37 66.24 37.16 59.82 35.07 49.44 49.37"/><polygon class="cls-7" points="51.75 33.93 42 33.93 29.07 77.4 33.02 71.97 51.75 33.93"/><polygon class="cls-8" points="33.96 35.3 20.64 38.45 22.48 94.01 25.48 84.74 33.96 35.3"/><polygon class="cls-9" points="0 53.46 20.06 115.76 21.33 102.07 14.12 43.2 0 53.46"/><polygon class="cls-10" points="33.02 71.97 29.07 77.4 39.41 91.65 33.02 71.97"/><polygon class="cls-11" points="59.82 119.73 55.87 114.3 25.48 84.74 22.48 94.01 59.82 119.73"/><polygon class="cls-12" points="28.1 139.94 93.54 139.94 80.92 134.71 22.72 123.37 28.1 139.94"/><polygon class="cls-13" points="73.58 131.13 65.71 125.41 21.33 102.07 20.06 115.76 73.58 131.13"/><polygon class="cls-14" points="139.26 77.74 130.36 88.13 101.63 139.94 119.05 139.94 139.26 77.74"/><polygon class="cls-15" points="80.92 134.71 93.54 139.94 124.69 94.01 116.8 99.73 80.92 134.71"/><polygon class="cls-16" points="109.59 103.57 103.17 105.66 65.71 125.41 73.58 131.13 109.59 103.57"/><polygon class="cls-17" points="76.56 114.3 55.87 114.3 59.82 119.73 76.56 114.3"/><polygon class="cls-18" points="116.8 99.73 124.69 94.01 109.59 51.24 109.59 58.01 116.8 99.73"/><polygon class="cls-19" points="130.36 88.13 139.26 77.74 105.16 33.93 108.18 43.21 130.36 88.13"/><polygon class="cls-20" points="94.23 15 101.36 26.72 141.75 70.05 147.15 53.46 94.23 15"/><polygon class="cls-21" points="103.17 105.66 109.59 103.57 109.59 85.91 103.17 105.66"/></g></g></svg>