<svg xmlns="http://www.w3.org/2000/svg" xmlns:xlink="http://www.w3.org/1999/xlink" viewBox="0 0 220 209.23"><defs><style>.cls-1{fill:#c8bc87;}.cls-2{fill:#daba81;}.cls-3{fill:#efbd79;}.cls-4{fill:#fdc073;}.cls-5{fill:#f2aa70;}.cls-6{fill:#ed9769;}.cls-7{fill:#df7d6a;}.cls-8{fill:#c55a73;}.cls-9{fill:#c55875;}.cls-10{fill:#b3577e;}.cls-11{fill:#896c96;}.cls-12{fill:#a15f89;}.cls-13{fill:#5cadb2;}.cls-14{fill:#66a3ad;}.cls-15{fill:#7696a5;}.cls-16{fill:#8d8598;}.cls-17{fill:#92c29f;}.cls-18{fill:#aacc98;}.cls-19{fill:#b8cf97;}.cls-20{fill:#87b4a2;}</style><symbol id="Icon" data-name="Icon" viewBox="0 0 160.99 153.11"><polygon class="cls-1" points="120.32 65.73 95.49 47.7 120.32 55.75 120.32 65.73"/><polygon class="cls-2" points="119.36 49.37 115.27 36.81 80.69 36.81 119.36 49.37"/><polygon class="cls-3" points="112.4 31.03 102.41 17.26 60.01 31.03 112.4 31.03"/><polygon class="cls-4" points="80.48 0 34.92 33.09 97.9 12.64 80.48 0"/><polygon class="cls-5" points="74.76 40.95 49.97 58.97 65.28 37.87 74.76 40.95"/><polygon class="cls-6" points="35.04 69.66 58.93 36.81 45.73 36.81 35.04 69.66"/><polygon class="cls-7" points="23.17 43 23.17 87.51 39.34 37.74 23.17 43"/><polygon class="cls-8" points="17.39 112 17.39 45.85 0 58.48 17.39 112"/><polygon class="cls-9" points="31.28 84.68 37.12 76.65 46.56 105.74 31.28 84.68"/><polygon class="cls-10" points="24.23 102.96 52.13 123.23 28.3 90.42 24.23 102.96"/><polygon class="cls-11" points="86.94 153.11 24.12 132.69 30.75 153.11 86.94 153.11"/><polygon class="cls-12" points="23.17 109.32 23.17 126.31 65.46 140.05 23.17 109.32"/><polygon class="cls-13" points="108.78 153.11 147.6 99.67 130.24 153.11 108.78 153.11"/><polygon class="cls-14" points="128.53 116.08 86.24 146.81 102.41 152.05 128.53 116.08"/><polygon class="cls-15" points="108.4 123.56 69.85 136.1 80.5 143.84 108.4 123.56"/><polygon class="cls-16" points="90.02 123.46 59.45 123.46 65.28 131.49 90.02 123.46"/><polygon class="cls-17" points="136.77 102.96 126.1 110.71 126.1 70.1 136.77 102.96"/><polygon class="cls-18" points="141.38 98.42 151.37 84.66 125.19 48.64 141.38 98.42"/><polygon class="cls-19" points="160.99 58.48 115.47 25.41 154.34 78.92 160.99 58.48"/><polygon class="cls-20" points="120.32 113.62 120.32 87.55 110.84 116.7 120.32 113.62"/></symbol></defs><g id="Layer_2" data-name="Layer 2"><g id="Logos"><use width="160.99" height="153.11" transform="scale(1.37)" xlink:href="#Icon"/></g></g></svg>