<svg xmlns="http://www.w3.org/2000/svg" viewBox="0 0 220 209.23"><defs><style>.cls-1{fill:#fff;}</style></defs><g id="Layer_2" data-name="Layer 2"><g id="Logos"><polygon class="cls-1" points="164.43 89.82 130.49 65.18 164.43 76.19 164.43 89.82"/><polygon class="cls-1" points="163.11 67.47 157.53 50.31 110.28 50.31 163.11 67.47"/><polygon class="cls-1" points="153.61 42.41 139.94 23.59 82 42.41 153.61 42.41"/><polygon class="cls-1" points="109.99 0 47.73 45.23 133.78 17.27 109.99 0"/><polygon class="cls-1" points="102.17 55.97 68.29 80.58 89.22 51.76 102.17 55.97"/><polygon class="cls-1" points="47.89 95.19 80.53 50.31 62.5 50.31 47.89 95.19"/><polygon class="cls-1" points="31.67 58.76 31.67 119.59 53.76 51.57 31.67 58.76"/><polygon class="cls-1" points="23.77 153.06 23.77 62.65 0 79.92 23.77 153.06"/><polygon class="cls-1" points="42.75 115.73 50.73 104.75 63.63 144.5 42.75 115.73"/><polygon class="cls-1" points="33.12 140.71 71.24 168.4 38.67 123.57 33.12 140.71"/><polygon class="cls-1" points="118.81 209.23 32.96 181.33 42.02 209.23 118.81 209.23"/><polygon class="cls-1" points="31.67 149.4 31.67 172.62 89.45 191.38 31.67 149.4"/><polygon class="cls-1" points="148.66 209.23 201.7 136.21 177.99 209.23 148.66 209.23"/><polygon class="cls-1" points="175.64 158.64 117.86 200.63 139.94 207.78 175.64 158.64"/><polygon class="cls-1" points="148.13 168.85 95.45 185.99 110.01 196.57 148.13 168.85"/><polygon class="cls-1" points="123.02 168.72 81.24 168.72 89.22 179.7 123.02 168.72"/><polygon class="cls-1" points="186.91 140.71 172.32 151.29 172.32 95.8 186.91 140.71"/><polygon class="cls-1" points="193.2 134.5 206.86 115.7 171.09 66.47 193.2 134.5"/><polygon class="cls-1" points="220 79.92 157.79 34.72 210.92 107.85 220 79.92"/><polygon class="cls-1" points="164.43 155.27 164.43 119.65 151.47 159.48 164.43 155.27"/></g></g></svg>