<svg xmlns="http://www.w3.org/2000/svg" viewBox="0 0 211.68 98.7"><defs><style>.cls-1,.cls-2,.cls-3,.cls-4{fill:#fff;}.cls-2{opacity:0.4;}.cls-3{opacity:0.6;}.cls-4{opacity:0.8;}</style></defs><g id="Layer_2" data-name="Layer 2"><g id="Logos"><path class="cls-1" d="M120.25,75.75a11.43,11.43,0,0,1-4.82-3.59,8.48,8.48,0,0,1-1.75-4.79,1,1,0,0,1,.31-.73,1.07,1.07,0,0,1,.79-.32h2.56a1.33,1.33,0,0,1,1.31,1.05,6.36,6.36,0,0,0,2.7,3.8,10.84,10.84,0,0,0,6.36,1.6q4.46,0,6.66-1.58a5,5,0,0,0,2.2-4.34,4.13,4.13,0,0,0-1.08-2.94,8.89,8.89,0,0,0-3.19-2q-2.13-.87-6.37-2.12a31.3,31.3,0,0,1-6.41-2.47,9.44,9.44,0,0,1-3.59-3.22,9.68,9.68,0,0,1,.31-9.9,10.28,10.28,0,0,1,4.4-3.51,16.72,16.72,0,0,1,6.81-1.28,15.63,15.63,0,0,1,7,1.44,11.53,11.53,0,0,1,4.42,3.61,8.33,8.33,0,0,1,1.62,4.38,1.08,1.08,0,0,1-1.09,1.1h-2.62a1.38,1.38,0,0,1-.79-.26,1.45,1.45,0,0,1-.52-.79A5.28,5.28,0,0,0,133,45.16a9.67,9.67,0,0,0-5.5-1.46,10.14,10.14,0,0,0-5.65,1.38,4.62,4.62,0,0,0-2.1,4.11,4.46,4.46,0,0,0,1,3,8.1,8.1,0,0,0,3,2,51.68,51.68,0,0,0,5.9,2.05,41.07,41.07,0,0,1,7,2.51,9.62,9.62,0,0,1,3.8,3.12,8.36,8.36,0,0,1,1.26,4.79,9,9,0,0,1-3.75,7.67c-2.5,1.84-5.87,2.75-10.14,2.75A18.75,18.75,0,0,1,120.25,75.75Z"/><path class="cls-1" d="M150,86.23a1,1,0,0,1-.32-.73,5.39,5.39,0,0,1,.26-1L154.06,75l-10-23.63a2.44,2.44,0,0,1-.32-.89,1.3,1.3,0,0,1,.37-.78,1,1,0,0,1,.73-.32h2.41a1.35,1.35,0,0,1,1.26.84l8.07,19.28,8.27-19.28a1.35,1.35,0,0,1,1.26-.84h2.35a1,1,0,0,1,.74.32,1,1,0,0,1,.31.73,2.48,2.48,0,0,1-.26.94L154.43,85.7a2.34,2.34,0,0,1-.55.63,1.27,1.27,0,0,1-.76.21h-2.31A1.06,1.06,0,0,1,150,86.23Z"/><path class="cls-1" d="M178.18,76.25a1.17,1.17,0,0,1-.34-.86v-22h-4.5a1.24,1.24,0,0,1-.87-.32,1.11,1.11,0,0,1-.34-.84V50.56a1.16,1.16,0,0,1,1.21-1.21h4.5V46.73a9.55,9.55,0,0,1,2.07-6.57q2.07-2.32,6.78-2.33h3.09a1.18,1.18,0,0,1,.87.34A1.15,1.15,0,0,1,191,39v1.68a1.08,1.08,0,0,1-.34.84,1.24,1.24,0,0,1-.87.31h-3a3.92,3.92,0,0,0-3.35,1.26A6.46,6.46,0,0,0,182.5,47v2.35h6.76a1.16,1.16,0,0,1,1.21,1.21v1.67a1.11,1.11,0,0,1-.34.84,1.24,1.24,0,0,1-.87.32H182.5v22a1.17,1.17,0,0,1-.34.86,1.14,1.14,0,0,1-.86.34h-2.25A1.18,1.18,0,0,1,178.18,76.25Z"/><path class="cls-1" d="M198.85,67.42v-14h-4.14a1.1,1.1,0,0,1-1.16-1.16V50.56a1.24,1.24,0,0,1,.32-.87,1.11,1.11,0,0,1,.84-.34h4.14V40.6a1.23,1.23,0,0,1,.31-.86,1.08,1.08,0,0,1,.84-.34h2.3a1.18,1.18,0,0,1,.87.34,1.21,1.21,0,0,1,.34.86v8.75H210a1.16,1.16,0,0,1,1.21,1.21v1.67a1.11,1.11,0,0,1-.34.84,1.24,1.24,0,0,1-.87.32h-6.49V67.06a7.67,7.67,0,0,0,.86,4,3.23,3.23,0,0,0,3,1.36h3.2a1.09,1.09,0,0,1,.83.34,1.24,1.24,0,0,1,.32.87v1.73a1.24,1.24,0,0,1-.32.86,1.06,1.06,0,0,1-.83.34H207Q198.84,76.59,198.85,67.42Z"/><polygon class="cls-2" points="65.42 32.29 77.29 40.91 77.29 36.14 65.42 32.29"/><polygon class="cls-3" points="42.19 24.74 46.72 26.21 76.3 30.48 74.17 23.93 42.19 24.74"/><polygon class="cls-4" points="29.62 23.93 36.5 23.93 71.49 18.84 66.46 10.58 29.62 23.93"/><polygon class="cls-1" points="51.89 0 14.56 27.12 23.95 24.9 61.86 7.24 51.89 0"/><polygon class="cls-2" points="34.87 34.82 46.72 26.21 42.19 24.74 34.87 34.82"/><polygon class="cls-3" points="36.5 23.93 29.62 23.93 20.51 54.59 23.29 50.76 36.5 23.93"/><polygon class="cls-4" points="23.95 24.9 14.56 27.12 15.85 66.3 17.97 59.77 23.95 24.9"/><polygon class="cls-1" points="0 37.7 14.15 81.64 15.05 71.99 9.96 30.47 0 37.7"/><polygon class="cls-2" points="23.29 50.76 20.51 54.59 27.8 64.64 23.29 50.76"/><polygon class="cls-3" points="42.19 84.45 39.41 80.61 17.97 59.77 15.85 66.3 42.19 84.45"/><polygon class="cls-1" points="19.82 98.7 65.98 98.7 57.07 95.01 16.03 87.02 19.82 98.7"/><polygon class="cls-4" points="51.9 92.49 46.35 88.45 15.05 71.99 14.15 81.64 51.9 92.49"/><polygon class="cls-1" points="98.22 54.83 91.95 62.16 71.68 98.7 83.96 98.7 98.22 54.83"/><polygon class="cls-4" points="57.07 95.01 65.98 98.7 87.94 66.3 82.38 70.34 57.07 95.01"/><polygon class="cls-3" points="77.29 73.05 72.76 74.52 46.35 88.45 51.9 92.49 77.29 73.05"/><polygon class="cls-2" points="54 80.61 39.41 80.61 42.19 84.45 54 80.61"/><polygon class="cls-3" points="82.38 70.34 87.94 66.3 77.29 36.14 77.29 40.91 82.38 70.34"/><polygon class="cls-4" points="91.95 62.16 98.22 54.83 74.17 23.93 76.3 30.48 91.95 62.16"/><polygon class="cls-1" points="66.46 10.58 71.49 18.84 99.98 49.41 103.78 37.7 66.46 10.58"/><polygon class="cls-2" points="72.76 74.52 77.29 73.05 77.29 60.59 72.76 74.52"/></g></g></svg>