<svg xmlns="http://www.w3.org/2000/svg" viewBox="0 0 147.13 221.08"><g id="Layer_2" data-name="Layer 2"><g id="Logos"><path d="M30.11,210.29a11.45,11.45,0,0,1-4.82-3.59,8.49,8.49,0,0,1-1.76-4.79,1,1,0,0,1,.32-.74,1.06,1.06,0,0,1,.78-.31H27.2a1.34,1.34,0,0,1,1.31,1,6.25,6.25,0,0,0,2.7,3.79,10.75,10.75,0,0,0,6.36,1.6q4.45,0,6.65-1.57a5,5,0,0,0,2.2-4.35,4.16,4.16,0,0,0-1.07-2.93,9,9,0,0,0-3.2-2q-2.11-.85-6.36-2.12a32.07,32.07,0,0,1-6.42-2.46,9.49,9.49,0,0,1-3.58-3.22,8.9,8.9,0,0,1-1.21-4.85,8.77,8.77,0,0,1,1.52-5.05,10.14,10.14,0,0,1,4.4-3.51,16.55,16.55,0,0,1,6.81-1.28,15.62,15.62,0,0,1,7,1.44A11.48,11.48,0,0,1,48.73,179a8.33,8.33,0,0,1,1.62,4.37,1.06,1.06,0,0,1-1.1,1.1H46.63a1.26,1.26,0,0,1-.78-.26,1.4,1.4,0,0,1-.53-.78,5.27,5.27,0,0,0-2.51-3.72,9.7,9.7,0,0,0-5.5-1.47,10.09,10.09,0,0,0-5.66,1.39,4.63,4.63,0,0,0-2.09,4.11,4.48,4.48,0,0,0,1,3,8,8,0,0,0,3,2,52.43,52.43,0,0,0,5.89,2,42.35,42.35,0,0,1,7,2.52,9.5,9.5,0,0,1,3.79,3.11,8.39,8.39,0,0,1,1.26,4.8,9,9,0,0,1-3.74,7.67q-3.75,2.74-10.14,2.75A18.75,18.75,0,0,1,30.11,210.29Z"/><path d="M59.88,220.76a1,1,0,0,1-.31-.73,5.39,5.39,0,0,1,.26-.94l4.09-9.59-10-23.62a2.42,2.42,0,0,1-.31-.89,1.25,1.25,0,0,1,.37-.79,1,1,0,0,1,.73-.31h2.41a1.36,1.36,0,0,1,1.26.84L66.43,204l8.28-19.27a1.34,1.34,0,0,1,1.25-.84h2.36a1,1,0,0,1,.74.31,1.05,1.05,0,0,1,.31.74,2.48,2.48,0,0,1-.26.94L64.28,220.24a2,2,0,0,1-.55.63,1.25,1.25,0,0,1-.76.21h-2.3A1.07,1.07,0,0,1,59.88,220.76Z"/><path d="M88,210.79a1.18,1.18,0,0,1-.34-.87v-22H83.19a1.21,1.21,0,0,1-.86-.31,1.08,1.08,0,0,1-.34-.84v-1.68a1.16,1.16,0,0,1,1.2-1.2H87.7v-2.62a9.55,9.55,0,0,1,2.07-6.57q2.07-2.34,6.78-2.34h3.09a1.18,1.18,0,0,1,1.21,1.21v1.68a1.09,1.09,0,0,1-.34.83,1.24,1.24,0,0,1-.87.32h-3a4,4,0,0,0-3.36,1.26,6.5,6.5,0,0,0-.94,3.87v2.36h6.76a1.16,1.16,0,0,1,1.2,1.2v1.68a1.08,1.08,0,0,1-.34.84,1.21,1.21,0,0,1-.86.31H92.36v22a1.18,1.18,0,0,1-.34.87,1.21,1.21,0,0,1-.86.34H88.9A1.19,1.19,0,0,1,88,210.79Z"/><path d="M108.7,202v-14h-4.14a1.11,1.11,0,0,1-.83-.31,1.14,1.14,0,0,1-.32-.84v-1.68a1.22,1.22,0,0,1,.32-.86,1.06,1.06,0,0,1,.83-.34h4.14v-8.75a1.2,1.2,0,0,1,.32-.86,1.06,1.06,0,0,1,.83-.34h2.31a1.16,1.16,0,0,1,1.2,1.2v8.75h6.5a1.14,1.14,0,0,1,.86.34,1.15,1.15,0,0,1,.34.86v1.68a1.08,1.08,0,0,1-.34.84,1.2,1.2,0,0,1-.86.31h-6.5v13.67a7.6,7.6,0,0,0,.87,4,3.24,3.24,0,0,0,3,1.36h3.19a1.08,1.08,0,0,1,.84.34,1.22,1.22,0,0,1,.32.86v1.73a1.24,1.24,0,0,1-.32.87,1.11,1.11,0,0,1-.84.34h-3.56Q108.71,211.13,108.7,202Z"/><polygon points="55.86 114.28 76.56 114.28 59.81 119.72 22.47 93.99 20.64 38.45 73.56 0 87.7 10.25 33.95 35.3 25.48 84.73 55.86 114.28"/><polygon points="109.57 85.9 109.57 103.56 73.58 131.12 20.06 115.74 0 53.45 14.12 43.2 21.34 102.06 65.71 125.39 103.15 105.64 109.57 85.9"/><polygon points="124.67 93.99 93.54 139.93 28.1 139.93 22.73 123.35 80.91 134.69 116.79 99.72 109.57 58 92.74 45.78 109.57 51.23 124.67 93.99"/><polygon points="139.24 77.73 119.03 139.93 101.62 139.93 130.35 88.12 108.17 43.2 66.23 37.16 49.43 49.36 59.81 35.07 105.15 33.92 139.24 77.73"/><polygon points="147.13 53.45 141.74 70.03 101.35 26.71 51.74 33.92 33.02 71.96 39.41 91.64 29.08 77.39 41.99 33.92 94.22 15 147.13 53.45"/></g></g></svg>