<svg xmlns="http://www.w3.org/2000/svg" viewBox="0 0 211.68 98.7"><g id="Layer_2" data-name="Layer 2"><g id="Logos"><path d="M120.25,75.75a11.43,11.43,0,0,1-4.82-3.59,8.48,8.48,0,0,1-1.75-4.79,1,1,0,0,1,.31-.73,1.07,1.07,0,0,1,.79-.32h2.56a1.33,1.33,0,0,1,1.31,1.05,6.36,6.36,0,0,0,2.7,3.8,10.84,10.84,0,0,0,6.36,1.59q4.46,0,6.66-1.57a5.05,5.05,0,0,0,2.2-4.34,4.13,4.13,0,0,0-1.08-2.94,8.76,8.76,0,0,0-3.19-2q-2.13-.87-6.37-2.13a31,31,0,0,1-6.41-2.46,9.44,9.44,0,0,1-3.59-3.22,9,9,0,0,1-1.21-4.84,8.8,8.8,0,0,1,1.52-5.06,10.28,10.28,0,0,1,4.4-3.51,16.72,16.72,0,0,1,6.81-1.28,15.63,15.63,0,0,1,7,1.44,11.44,11.44,0,0,1,4.42,3.61,8.43,8.43,0,0,1,1.63,4.38,1.09,1.09,0,0,1-1.1,1.1h-2.62a1.32,1.32,0,0,1-.79-.27,1.39,1.39,0,0,1-.52-.78A5.28,5.28,0,0,0,133,45.16a9.67,9.67,0,0,0-5.5-1.47,10.13,10.13,0,0,0-5.65,1.39,4.62,4.62,0,0,0-2.1,4.11,4.46,4.46,0,0,0,1,3,8.07,8.07,0,0,0,3,2,49.16,49.16,0,0,0,5.89,2,41.85,41.85,0,0,1,7,2.52,9.62,9.62,0,0,1,3.8,3.12,8.36,8.36,0,0,1,1.26,4.79,9,9,0,0,1-3.75,7.67c-2.5,1.83-5.87,2.75-10.14,2.75A18.75,18.75,0,0,1,120.25,75.75Z"/><path d="M150,86.23a1,1,0,0,1-.32-.74,5.39,5.39,0,0,1,.26-.94L154.06,75l-10-23.62a2.44,2.44,0,0,1-.32-.89,1.33,1.33,0,0,1,.37-.79,1,1,0,0,1,.73-.31h2.41a1.35,1.35,0,0,1,1.26.84l8.07,19.27,8.27-19.27a1.35,1.35,0,0,1,1.26-.84h2.35a1.05,1.05,0,0,1,.74.31,1,1,0,0,1,.31.74,2.31,2.31,0,0,1-.26.94L154.43,85.7a2.34,2.34,0,0,1-.55.63,1.27,1.27,0,0,1-.76.21h-2.31A1.06,1.06,0,0,1,150,86.23Z"/><path d="M178.18,76.25a1.18,1.18,0,0,1-.34-.87v-22h-4.5a1.24,1.24,0,0,1-.87-.31,1.11,1.11,0,0,1-.34-.84V50.55a1.21,1.21,0,0,1,.34-.86,1.18,1.18,0,0,1,.87-.34h4.5V46.73a9.55,9.55,0,0,1,2.07-6.57c1.38-1.56,3.64-2.33,6.78-2.33h3.09a1.18,1.18,0,0,1,.87.34A1.14,1.14,0,0,1,191,39v1.68a1.08,1.08,0,0,1-.34.84,1.28,1.28,0,0,1-.87.31h-3a3.93,3.93,0,0,0-3.35,1.26A6.43,6.43,0,0,0,182.5,47v2.36h6.76a1.18,1.18,0,0,1,.87.34,1.21,1.21,0,0,1,.34.86v1.68a1.11,1.11,0,0,1-.34.84,1.24,1.24,0,0,1-.87.31H182.5v22a1.18,1.18,0,0,1-.34.87,1.14,1.14,0,0,1-.86.34h-2.25A1.18,1.18,0,0,1,178.18,76.25Z"/><path d="M198.85,67.42v-14h-4.14a1.07,1.07,0,0,1-1.15-1.15V50.55a1.23,1.23,0,0,1,.31-.86,1.08,1.08,0,0,1,.84-.34h4.14V40.6a1.21,1.21,0,0,1,.31-.86,1.08,1.08,0,0,1,.84-.34h2.3a1.18,1.18,0,0,1,.87.34,1.19,1.19,0,0,1,.34.86v8.75H210a1.18,1.18,0,0,1,.87.34,1.21,1.21,0,0,1,.34.86v1.68a1.11,1.11,0,0,1-.34.84,1.24,1.24,0,0,1-.87.31h-6.49V67.05a7.68,7.68,0,0,0,.86,4,3.23,3.23,0,0,0,3,1.36h3.2a1.06,1.06,0,0,1,.83.34,1.19,1.19,0,0,1,.32.86v1.73a1.2,1.2,0,0,1-.32.87,1.06,1.06,0,0,1-.83.34H207Q198.84,76.59,198.85,67.42Z"/><polygon points="39.4 80.61 54 80.61 42.19 84.45 15.85 66.3 14.56 27.12 51.89 0 61.86 7.23 23.95 24.9 17.97 59.77 39.4 80.61"/><polygon points="77.29 60.59 77.29 73.05 51.9 92.49 14.15 81.64 0 37.7 9.96 30.47 15.05 71.99 46.35 88.45 72.76 74.52 77.29 60.59"/><polygon points="87.94 66.3 65.98 98.7 19.82 98.7 16.03 87.01 57.07 95.01 82.38 70.34 77.29 40.91 65.42 32.29 77.29 36.14 87.94 66.3"/><polygon points="98.22 54.83 83.96 98.7 71.68 98.7 91.95 62.16 76.3 30.47 46.72 26.21 34.87 34.82 42.19 24.74 74.17 23.93 98.22 54.83"/><polygon points="103.78 37.7 99.98 49.4 71.49 18.84 36.5 23.93 23.29 50.76 27.8 64.64 20.51 54.59 29.62 23.93 66.46 10.58 103.78 37.7"/></g></g></svg>