<svg xmlns="http://www.w3.org/2000/svg" viewBox="0 0 220 68.47"><defs><style>.cls-1{fill:#fff;}</style></defs><g id="Layer_2" data-name="Layer 2"><g id="Logos"><path class="cls-1" d="M.44,54A1.76,1.76,0,0,1,0,52.79V4.71A1.85,1.85,0,0,1,.44,3.42,1.57,1.57,0,0,1,1.62,3H20.25q8.31,0,13.07,4t4.75,11.67q0,7.65-4.75,11.63t-13.07,4H7V52.79A1.69,1.69,0,0,1,6.52,54a1.66,1.66,0,0,1-1.22.48H1.62A1.54,1.54,0,0,1,.44,54ZM19.88,28.27Q31,28.27,31,18.63q0-4.71-2.76-7.22t-8.36-2.5H7V28.27Z"/><path class="cls-1" d="M50.8,68a1.42,1.42,0,0,1-.44-1,6.78,6.78,0,0,1,.37-1.32L56.47,52.2,42.41,19A3.31,3.31,0,0,1,42,17.74a1.8,1.8,0,0,1,.51-1.1,1.44,1.44,0,0,1,1-.44H46.9a1.9,1.9,0,0,1,1.77,1.18L60,44.47,71.64,17.38a1.88,1.88,0,0,1,1.77-1.18h3.31a1.42,1.42,0,0,1,1,.44,1.39,1.39,0,0,1,.44,1A3.49,3.49,0,0,1,77.83,19L57,67.3a3.27,3.27,0,0,1-.78.88,1.73,1.73,0,0,1-1.06.29H51.91A1.5,1.5,0,0,1,50.8,68Z"/><path class="cls-1" d="M91.48,53.31a16.1,16.1,0,0,1-6.77-5.05,11.91,11.91,0,0,1-2.47-6.73,1.41,1.41,0,0,1,.44-1,1.51,1.51,0,0,1,1.11-.45H87.4a1.89,1.89,0,0,1,1.84,1.48A8.85,8.85,0,0,0,93,46.87c2.08,1.49,5.07,2.24,8.94,2.24,4.18,0,7.29-.74,9.36-2.21a7.09,7.09,0,0,0,3.09-6.11,5.83,5.83,0,0,0-1.51-4.12,12.63,12.63,0,0,0-4.49-2.84q-3-1.21-9-3a44.36,44.36,0,0,1-9-3.46,13.47,13.47,0,0,1-5-4.53,12.55,12.55,0,0,1-1.7-6.81A12.31,12.31,0,0,1,85.85,9,14.29,14.29,0,0,1,92,4a23.43,23.43,0,0,1,9.58-1.8,22,22,0,0,1,9.83,2,16.22,16.22,0,0,1,6.22,5.08,11.73,11.73,0,0,1,2.28,6.15,1.54,1.54,0,0,1-.44,1.11,1.52,1.52,0,0,1-1.11.44h-3.68a1.82,1.82,0,0,1-1.1-.37,2,2,0,0,1-.74-1.1,7.4,7.4,0,0,0-3.53-5.23,13.6,13.6,0,0,0-7.73-2.06,14.27,14.27,0,0,0-8,1.95A6.49,6.49,0,0,0,90.71,16a6.25,6.25,0,0,0,1.36,4.19,11.52,11.52,0,0,0,4.2,2.88,75.12,75.12,0,0,0,8.28,2.87,59.34,59.34,0,0,1,9.83,3.53,13.49,13.49,0,0,1,5.34,4.38,11.81,11.81,0,0,1,1.77,6.74,12.64,12.64,0,0,1-5.27,10.79Q111,55.22,102,55.22A26.55,26.55,0,0,1,91.48,53.31Z"/><path class="cls-1" d="M133.34,68a1.42,1.42,0,0,1-.44-1,6.78,6.78,0,0,1,.37-1.32L139,52.2,125,19a3.39,3.39,0,0,1-.45-1.26,1.81,1.81,0,0,1,.52-1.1,1.42,1.42,0,0,1,1-.44h3.39a1.88,1.88,0,0,1,1.76,1.18l11.34,27.09,11.64-27.09a1.88,1.88,0,0,1,1.76-1.18h3.32a1.44,1.44,0,0,1,1,.44,1.42,1.42,0,0,1,.44,1,3.36,3.36,0,0,1-.37,1.33L139.53,67.3a3.27,3.27,0,0,1-.78.88,1.74,1.74,0,0,1-1.07.29h-3.24A1.46,1.46,0,0,1,133.34,68Z"/><path class="cls-1" d="M172.92,54a1.66,1.66,0,0,1-.48-1.22V21.87H166.1a1.73,1.73,0,0,1-1.21-.44,1.54,1.54,0,0,1-.48-1.18V17.89a1.64,1.64,0,0,1,1.69-1.69h6.34V12.52q0-6,2.91-9.24T184.88,0h4.34a1.64,1.64,0,0,1,1.7,1.69V4.05a1.54,1.54,0,0,1-.48,1.18,1.74,1.74,0,0,1-1.22.44H185q-3.39,0-4.72,1.77T179,12.89V16.2h9.5a1.64,1.64,0,0,1,1.69,1.69v2.36a1.54,1.54,0,0,1-.48,1.18,1.73,1.73,0,0,1-1.21.44H179V52.79a1.66,1.66,0,0,1-.48,1.22,1.64,1.64,0,0,1-1.21.48h-3.17A1.62,1.62,0,0,1,172.92,54Z"/><path class="cls-1" d="M202,41.6V21.87h-5.82a1.53,1.53,0,0,1-1.62-1.62V17.89a1.69,1.69,0,0,1,.45-1.21,1.5,1.5,0,0,1,1.17-.48H202V3.9a1.73,1.73,0,0,1,.44-1.21,1.54,1.54,0,0,1,1.18-.48h3.24a1.64,1.64,0,0,1,1.69,1.69V16.2h9.13a1.66,1.66,0,0,1,1.22.48,1.64,1.64,0,0,1,.48,1.21v2.36a1.54,1.54,0,0,1-.48,1.18,1.76,1.76,0,0,1-1.22.44h-9.13V41.09a10.65,10.65,0,0,0,1.22,5.66,4.53,4.53,0,0,0,4.16,1.92h4.49a1.54,1.54,0,0,1,1.18.48,1.73,1.73,0,0,1,.44,1.21v2.43a1.76,1.76,0,0,1-.44,1.22,1.54,1.54,0,0,1-1.18.48h-5Q202,54.49,202,41.6Z"/></g></g></svg>