<svg xmlns="http://www.w3.org/2000/svg" xmlns:xlink="http://www.w3.org/1999/xlink" viewBox="0 0 186.6 186.6"><defs><style>.cls-1{fill:#52a8c5;}.cls-2{fill:#dfb28b;}.cls-3{fill:#ae8fb3;}.cls-10,.cls-4{fill:#2e2b3b;}.cls-4,.cls-5,.cls-7,.cls-9{fill-rule:evenodd;}.cls-5,.cls-9{fill:#cf9e76;}.cls-5{stroke:#2e2b3b;stroke-miterlimit:10;}.cls-6{clip-path:url(#clip-path);}.cls-7{fill:#2d8dad;}.cls-8{clip-path:url(#clip-path-2);}</style><clipPath id="clip-path"><path class="cls-1" d="M164.19,154A93.29,93.29,0,0,1,33.67,165.05c2.08-5.46,5-10.47,9.54-13.64s9.87-4.6,15.16-6c9.15-2.42,18.41-4.85,27.87-5,3.75-.07,8.39-.29,9.94-3.69.27.29.12.85.48,1,7.71,3.73,16.41,4.82,25,5.39s17.19.68,25.53,2.66A40.5,40.5,0,0,1,164.19,154Z"/></clipPath><clipPath id="clip-path-2"><path class="cls-2" d="M118.81,158.9a15.43,15.43,0,0,0,2.6-2.13C126,152,123,145.48,117.63,143c-3.77-1.71-16.6-2.46-14-9.51,1.08-2.9,4.48-4,7.39-5.08,20.91-7.56,34.4-29.56,31.12-51.63a47.4,47.4,0,0,0-15.82-28.67,52.26,52.26,0,0,0-58.42-5.6,48.42,48.42,0,0,0-23.8,45.05A48.45,48.45,0,0,0,75,128.12c3.53,1.29,8,3.09,8,6.85,0,2.3-1.82,4.25-3.91,5.2s-4.43,1.15-6.68,1.62c-4.27.88-8.85,3.37-9.68,7.66-1.86,9.63,11.62,13,18.52,13l18.68,0C106,162.43,113.43,162.37,118.81,158.9Z"/></clipPath></defs><g id="Layer_2" data-name="Layer 2"><g id="Alice"><g id="Alice-2" data-name="Alice"><path class="cls-3" d="M186.6,93.3A93.08,93.08,0,0,1,164.19,154l-.3.34q-2.82,3.27-5.92,6.24c-1,.93-1.95,1.83-2.95,2.72a93.29,93.29,0,1,1,31.58-70Z"/><path class="cls-4" d="M163.89,154.3q-2.82,3.27-5.92,6.24c-1,.93-1.95,1.83-2.95,2.72a35.11,35.11,0,0,1-4.2.5q-54.36,3.94-108.94,2.56c-3.19-.08-6.79-.36-8.83-2.79-1.49-1.77-1.73-4.22-1.9-6.51C30,140.48,29.58,123.88,30,107.31c.41-16.31,1.69-33,8.12-48,.25-.57.5-1.13.76-1.69a63.22,63.22,0,0,1,8.44-13.53A53.45,53.45,0,0,1,59,33.42c4-2.65,8-3.63,12.08-5.59,1.35-.66,1.85-1.68,3.09-2.54C76,24,78.89,23.64,81,23.11c23.42-5.88,48,.46,62.3,21.62,9.37,13.82,12.79,30.15,15,46.55,2.38,17.76,4,35.63,5.63,53.49A35.79,35.79,0,0,1,163.89,154.3Z"/><path class="cls-5" d="M39.78,74.9c-3,4.69-3.58,11.13-.55,15.81a16.54,16.54,0,0,0,7,5.75A48.84,48.84,0,0,0,55,99.27l-1.55-9.41q-.76-4.71-1.55-9.42c-.17-1-.27-2.07-.38-3.12a8.52,8.52,0,0,0-.43-2.17,7.27,7.27,0,0,0-4.34-3.77c-2.61-.85-4.92.74-6.43,2.76C40.12,74.39,39.94,74.64,39.78,74.9Z"/><path class="cls-1" d="M164.19,154A93.29,93.29,0,0,1,33.67,165.05c2.08-5.46,5-10.47,9.54-13.64s9.87-4.6,15.16-6c9.15-2.42,18.41-4.85,27.87-5,3.75-.07,8.39-.29,9.94-3.69.27.29.12.85.48,1,7.71,3.73,16.41,4.82,25,5.39s17.19.68,25.53,2.66A40.5,40.5,0,0,1,164.19,154Z"/><g class="cls-6"><path class="cls-7" d="M171.93,143.54a93.48,93.48,0,0,1-63.85,41.89q-.3-5.12-1-10.22c-.09-.7-.19-1.39-.29-2.09-.39-2.59-.83-5.18-1.39-7.74-.47-2.14-1.42-4.48-.66-6.65s3.18-3.83,4.78-5.33c4.25-4,5.46-11.78,10.33-15,7.22-4.72,18.71-4.11,27.31-4.57s17.58,2.3,23.62,8.43A16.55,16.55,0,0,1,171.93,143.54Z"/></g><path class="cls-2" d="M118.81,158.9a15.43,15.43,0,0,0,2.6-2.13C126,152,123,145.48,117.63,143c-3.77-1.71-16.6-2.46-14-9.51,1.08-2.9,4.48-4,7.39-5.08,20.91-7.56,34.4-29.56,31.12-51.63a47.4,47.4,0,0,0-15.82-28.67,52.26,52.26,0,0,0-58.42-5.6,48.42,48.42,0,0,0-23.8,45.05A48.45,48.45,0,0,0,75,128.12c3.53,1.29,8,3.09,8,6.85,0,2.3-1.82,4.25-3.91,5.2s-4.43,1.15-6.68,1.62c-4.27.88-8.85,3.37-9.68,7.66-1.86,9.63,11.62,13,18.52,13l18.68,0C106,162.43,113.43,162.37,118.81,158.9Z"/><g class="cls-8"><path class="cls-9" d="M98.81,129a9.77,9.77,0,0,0-4.24,5.19,8.21,8.21,0,0,0,.89,7.56c1.25,1.69,3.19,2.7,4.81,4a15,15,0,0,1,4.92,14.2c-.34,1.68-1.18,3.61.16,5.11,1,1.1,2.7,1.11,4.16.9a24.82,24.82,0,0,0,17.09-11c1.58-2.45,2.73-5.48,1.82-8.24-.82-2.53-3.21-4.35-3.85-6.93-.76-3.08,1.18-6.12,3.14-8.62,4-5.16,8.57-10.05,11.23-16a23.12,23.12,0,0,0,2-8.41,18,18,0,0,0-.33-4.27,14.74,14.74,0,0,0-.57-2.07c-.9-2.56-3.4-1-4.58.51a18.37,18.37,0,0,0-2,3.82,35.5,35.5,0,0,1-11.29,14.13,48.51,48.51,0,0,1-12.56,6.25C106,126.44,101.94,127,98.81,129Z"/><path class="cls-9" d="M44.49,75.74a3.55,3.55,0,0,1,2.38,1.9,10.47,10.47,0,0,1,.9,3A157.72,157.72,0,0,0,51.6,98a41.94,41.94,0,0,0,8.27,15.62C63,117.19,67,120,70.19,123.46a3.25,3.25,0,0,1,1.18,2.7c-.22,1-1.26,1.57-2.21,1.93a19.85,19.85,0,0,1-24.52-9C40.76,112,41.51,103.45,40,95.54a76,76,0,0,1-1.47-7.6,14.29,14.29,0,0,1,.91-6.44c.24-.66.52-1.3.77-2a7,7,0,0,1,1.48-2.74A3.33,3.33,0,0,1,44.49,75.74Z"/></g><path class="cls-4" d="M69.17,48.5c-1,4-1.46,8.55.94,11.88,1.51,2.11,3.94,3.34,6.37,4.24,5.52,2,11.44,2.75,17.29,3.36a17.82,17.82,0,0,0,6-.06,6.17,6.17,0,0,0,4.51-3.63c2.06,2.9,5.94,3.71,9.47,4.16a139,139,0,0,0,31.84.41,3.92,3.92,0,0,0,2.57-.91,3.81,3.81,0,0,0,.69-2.78c-.44-13.08-8.47-25.22-19.4-32.42S105.05,22.93,92,23.46a32.84,32.84,0,0,0-8.25,1.21,14,14,0,0,0-5.4,2.68,15.53,15.53,0,0,0-2.67,4.23A72.38,72.38,0,0,0,72,39.37a70.82,70.82,0,0,0-2.63,8.18Z"/><path class="cls-4" d="M82.54,22.25c-9.21-2-20.69,5.3-27.09,11C47.52,40.26,42,49.65,38.51,59.6c-2.22,6.4-5,19.08,4.14,21.58,6.83,1.86,15.44-4.33,20.78-7.92C73.76,66.32,82.8,57,88.47,45.9c1.18-2.3,2.2-4.66,3.33-7a10.58,10.58,0,0,0,1.49-5.07C93.07,29,89,24.65,84.73,22.92A12.88,12.88,0,0,0,82.54,22.25Z"/><path class="cls-10" d="M158,160.54a93.27,93.27,0,0,1-21.23,15.35A23.66,23.66,0,0,1,135,172.4c-3.2-7.82-3.81-16.73-3.31-25.35s2.06-17.11,3-25.68a176.27,176.27,0,0,0,.24-35.58c-.64-6.75-1.67-13.47-1.85-20.27q-.09-3.22.13-6.44a42.87,42.87,0,0,1,2.22-11.22c.33-.93.51-2.6,1.45-3,1.33-.52,3.08.34,4.12,1.27a13.54,13.54,0,0,1,3.15,5c4,9.54,5,20.35,5.28,30.93s-.2,21.23,1.09,31.71c1,8.36,3.16,16.58,3.35,25,.14,6.46-.76,13.47,2.23,19A17.44,17.44,0,0,0,158,160.54Z"/><path class="cls-4" d="M40.33,82.43c.69,9.15,1.69,18.42,6.12,27.06a42.82,42.82,0,0,0,24.74,20.72A40,40,0,0,1,53.6,111.69c-3.27-7.14-4.21-14.68-4.48-22.16s.12-15-.58-22.43a15,15,0,0,0-.5-3c-.17-.58-.3-1.7-1.34-1.87a3.35,3.35,0,0,0-2.3.77,6.5,6.5,0,0,0-1.67,2.19,18.7,18.7,0,0,0-2,5.31,28.57,28.57,0,0,0-.62,5.59c0,1.89,0,3.78.18,5.67C40.3,82,40.31,82.22,40.33,82.43Z"/></g></g></g></svg>