<svg xmlns="http://www.w3.org/2000/svg" xmlns:xlink="http://www.w3.org/1999/xlink" viewBox="0 0 186.6 200.11"><defs><style>.cls-1{fill:#ae8fb3;}.cls-2{fill:#52a8c5;}.cls-3{fill:#dfb28b;}.cls-4{clip-path:url(#clip-path);}.cls-11,.cls-5{fill:#2e2b3b;}.cls-10,.cls-5,.cls-6,.cls-8{fill-rule:evenodd;}.cls-10,.cls-6{fill:#cf9e76;}.cls-6{stroke:#2e2b3b;stroke-miterlimit:10;}.cls-7{clip-path:url(#clip-path-2);}.cls-8{fill:#2d8dad;}.cls-9{clip-path:url(#clip-path-3);}</style><clipPath id="clip-path"><circle id="container" class="cls-1" cx="93.3" cy="93.3" r="93.3"/></clipPath><clipPath id="clip-path-2"><path class="cls-2" d="M30.14,177.75c15.14,9.38,32.47,14.48,49.56,19.48,4.67,1.36,9.41,2.74,14.28,2.87,5.35.14,10.61-1.22,15.74-2.73,11.53-3.4,22.91-7.62,33.21-13.82s19.54-14.45,25.72-24.77c-5-7-13.18-11-21.52-13s-17-2.08-25.52-2.65-17.25-1.66-25-5.39c-.35-.17-.2-.73-.47-1-1.56,3.41-6.19,3.63-9.94,3.7-9.46.16-18.72,2.6-27.88,5-5.28,1.4-10.68,2.85-15.15,6C35.29,157,32.12,168.26,30.14,177.75Z"/></clipPath><clipPath id="clip-path-3"><path class="cls-3" d="M118.81,158.89a14.47,14.47,0,0,0,2.59-2.12C126,152,123,145.48,117.63,143c-3.77-1.71-16.6-2.47-14-9.51,1.08-2.91,4.48-4,7.39-5.08,20.91-7.56,34.39-29.57,31.12-51.63a47.37,47.37,0,0,0-15.83-28.67,52.26,52.26,0,0,0-58.42-5.6A48.43,48.43,0,0,0,44.11,87.59,48.43,48.43,0,0,0,75,128.12c3.53,1.29,8,3.09,8,6.85,0,2.3-1.82,4.25-3.91,5.2s-4.43,1.15-6.68,1.62c-4.28.88-8.85,3.37-9.68,7.66-1.86,9.63,11.62,12.94,18.52,13l18.68,0C106,162.43,113.43,162.37,118.81,158.89Z"/></clipPath></defs><g id="Layer_2" data-name="Layer 2"><g id="Alice"><g id="Alice-2" data-name="Alice"><circle id="container-2" data-name="container" class="cls-1" cx="93.3" cy="93.3" r="93.3"/><g class="cls-4"><g id="profile"><path class="cls-5" d="M38.12,59.33c-6.43,15-7.71,31.67-8.13,48q-.63,24.87,1.16,49.72c.17,2.29.41,4.74,1.9,6.51,2,2.42,5.64,2.71,8.83,2.79q54.48,1.4,108.93-2.56c4.43-.33,9.22-.94,11.64-5.3,2.25-4,1.89-9.24,1.49-13.7-1.63-17.85-3.25-35.72-5.64-53.49-2.2-16.39-5.62-32.72-15-46.54C129,23.56,104.43,17.23,81,23.11c-2.12.53-5,.9-6.85,2.18-1.25.86-1.74,1.88-3.09,2.53C67,29.79,63,30.77,59,33.41a53.92,53.92,0,0,0-11.66,10.7,63.22,63.22,0,0,0-8.44,13.53C38.62,58.2,38.36,58.76,38.12,59.33Z"/><path class="cls-6" d="M39.78,74.89c-3,4.7-3.58,11.14-.55,15.82a16.44,16.44,0,0,0,7,5.74A48.87,48.87,0,0,0,55,99.27l-1.55-9.41c-.52-3.14-1-6.28-1.55-9.42-.17-1-.28-2.08-.39-3.12a8.42,8.42,0,0,0-.42-2.17,7.23,7.23,0,0,0-4.35-3.77c-2.61-.85-4.91.74-6.42,2.76C40.11,74.39,39.94,74.64,39.78,74.89Z"/><path class="cls-2" d="M30.14,177.75c15.14,9.38,32.47,14.48,49.56,19.48,4.67,1.36,9.41,2.74,14.28,2.87,5.35.14,10.61-1.22,15.74-2.73,11.53-3.4,22.91-7.62,33.21-13.82s19.54-14.45,25.72-24.77c-5-7-13.18-11-21.52-13s-17-2.08-25.52-2.65-17.25-1.66-25-5.39c-.35-.17-.2-.73-.47-1-1.56,3.41-6.19,3.63-9.94,3.7-9.46.16-18.72,2.6-27.88,5-5.28,1.4-10.68,2.85-15.15,6C35.29,157,32.12,168.26,30.14,177.75Z"/><g class="cls-7"><path class="cls-8" d="M107.1,175.21a136.05,136.05,0,0,1,1.14,14c.1,3.54,1.71,4.61,4.82,2.95a30.4,30.4,0,0,1,11.72-3.88c5.58-.45,11.08,1.43,16.26,3.56a4.29,4.29,0,0,0,1.87.45,4,4,0,0,0,1.47-.51,122.32,122.32,0,0,0,21-13c4.43-3.46,8.68-7.48,10.81-12.68,3.26-8,.67-17.67-5.37-23.81s-15-8.89-23.62-8.43-20.1-.15-27.31,4.57c-4.87,3.18-6.09,11-10.33,15-1.6,1.51-4,3.18-4.78,5.34s.18,4.51.65,6.65c.57,2.55,1,5.15,1.39,7.74C106.91,173.81,107,174.51,107.1,175.21Z"/></g><path class="cls-3" d="M118.81,158.89a14.47,14.47,0,0,0,2.59-2.12C126,152,123,145.48,117.63,143c-3.77-1.71-16.6-2.47-14-9.51,1.08-2.91,4.48-4,7.39-5.08,20.91-7.56,34.39-29.57,31.12-51.63a47.37,47.37,0,0,0-15.83-28.67,52.26,52.26,0,0,0-58.42-5.6A48.43,48.43,0,0,0,44.11,87.59,48.43,48.43,0,0,0,75,128.12c3.53,1.29,8,3.09,8,6.85,0,2.3-1.82,4.25-3.91,5.2s-4.43,1.15-6.68,1.62c-4.28.88-8.85,3.37-9.68,7.66-1.86,9.63,11.62,12.94,18.52,13l18.68,0C106,162.43,113.43,162.37,118.81,158.89Z"/><g class="cls-9"><path class="cls-10" d="M98.81,129a9.84,9.84,0,0,0-4.24,5.2,8.18,8.18,0,0,0,.89,7.56c1.25,1.69,3.18,2.7,4.8,4A15,15,0,0,1,105.19,160c-.34,1.67-1.18,3.61.16,5.11,1,1.1,2.69,1.11,4.16.9a24.88,24.88,0,0,0,17.09-11c1.58-2.45,2.72-5.48,1.82-8.24-.83-2.53-3.22-4.35-3.85-6.93-.76-3.08,1.18-6.12,3.13-8.62,4-5.16,8.58-10.05,11.23-16a23,23,0,0,0,2-8.41,18.56,18.56,0,0,0-.33-4.27,15.12,15.12,0,0,0-.57-2.07c-.9-2.55-3.4-1-4.58.52a17.9,17.9,0,0,0-2,3.82,35.65,35.65,0,0,1-11.29,14.13,48.83,48.83,0,0,1-12.56,6.25C106,126.44,101.94,127,98.81,129Z"/><path class="cls-10" d="M44.49,75.74a3.52,3.52,0,0,1,2.38,1.9,10.47,10.47,0,0,1,.9,3A157.72,157.72,0,0,0,51.6,98a41.68,41.68,0,0,0,8.27,15.61C63,117.19,67,120,70.19,123.46a3.26,3.26,0,0,1,1.17,2.7c-.21,1-1.25,1.56-2.2,1.93a19.87,19.87,0,0,1-24.53-9C40.76,112,41.5,103.45,40,95.54a73.3,73.3,0,0,1-1.47-7.6,14.42,14.42,0,0,1,.9-6.44c.25-.66.53-1.31.77-2a7.12,7.12,0,0,1,1.49-2.74A3.33,3.33,0,0,1,44.49,75.74Z"/></g><path class="cls-5" d="M69.17,48.5c-1,4-1.46,8.55.93,11.88,1.52,2.11,4,3.34,6.38,4.24,5.52,2,11.44,2.75,17.29,3.36a17.83,17.83,0,0,0,6-.06,6.17,6.17,0,0,0,4.51-3.63c2.06,2.9,5.94,3.71,9.46,4.16a139.63,139.63,0,0,0,31.85.41,3.92,3.92,0,0,0,2.57-.91,3.79,3.79,0,0,0,.68-2.79c-.43-13.07-8.46-25.22-19.39-32.41S105.05,22.93,92,23.46a33.29,33.29,0,0,0-8.25,1.2,14.19,14.19,0,0,0-5.41,2.69,15.58,15.58,0,0,0-2.66,4.23A71.49,71.49,0,0,0,72,39.37a68.93,68.93,0,0,0-2.63,8.18C69.32,47.87,69.25,48.18,69.17,48.5Z"/><path class="cls-5" d="M82.54,22.25c-9.22-2-20.7,5.3-27.1,11-7.92,7-13.48,16.42-16.93,26.36-2.22,6.41-5,19.09,4.13,21.59,6.84,1.86,15.45-4.34,20.79-7.93C73.76,66.32,82.79,57,88.47,45.9c1.18-2.31,2.2-4.66,3.33-7a10.73,10.73,0,0,0,1.49-5.07C93.07,29,89,24.65,84.73,22.92A12.88,12.88,0,0,0,82.54,22.25Z"/><path class="cls-11" d="M133.06,65.52c.18,6.79,1.21,13.52,1.85,20.27a176.28,176.28,0,0,1-.24,35.58c-.92,8.57-2.48,17.06-3,25.68s.11,17.53,3.31,25.34a17.15,17.15,0,0,0,4.65,7c4.24,3.42,10,2.5,15.08,1.44,3.93-.82,8.59-2.35,9.7-6.76.79-3.15-.69-6.49-2.58-9s-4.25-4.48-5.77-7.27c-3-5.48-2.09-12.49-2.24-19-.18-8.44-2.32-16.66-3.35-25-1.29-10.48-.83-21.13-1.08-31.71s-1.28-21.39-5.28-30.93a13.56,13.56,0,0,0-3.16-5c-1-.93-2.78-1.79-4.11-1.27-1,.37-1.12,2-1.45,3a42.71,42.71,0,0,0-2.22,11.22A62.86,62.86,0,0,0,133.06,65.52Z"/><path class="cls-5" d="M40.33,82.43c.68,9.15,1.69,18.41,6.12,27.05A42.75,42.75,0,0,0,71.19,130.2,39.9,39.9,0,0,1,53.6,111.69c-3.27-7.14-4.22-14.68-4.48-22.16s.12-15-.58-22.44a16,16,0,0,0-.5-3c-.17-.58-.3-1.69-1.34-1.86a3.35,3.35,0,0,0-2.3.77,6.56,6.56,0,0,0-1.68,2.19,18.8,18.8,0,0,0-2,5.3,28.67,28.67,0,0,0-.62,5.6c-.05,1.89,0,3.78.18,5.67C40.3,82,40.31,82.22,40.33,82.43Z"/></g></g></g></g></g></svg>