<svg xmlns="http://www.w3.org/2000/svg" xmlns:xlink="http://www.w3.org/1999/xlink" viewBox="0 0 186.6 220.83"><defs><style>.cls-1{fill:#f2dea2;}.cls-2{fill:#b5917c;}.cls-10,.cls-3{fill:#96d195;}.cls-3{clip-rule:evenodd;}.cls-4{clip-path:url(#clip-path);}.cls-5{fill:#2e2b3b;}.cls-10,.cls-12,.cls-13,.cls-14,.cls-15,.cls-5,.cls-6,.cls-9{fill-rule:evenodd;}.cls-6{fill:#8ac989;}.cls-7{fill:#497d48;}.cls-8{clip-path:url(#clip-path-2);}.cls-9{fill:#9c7761;}.cls-11{clip-path:url(#clip-path-3);}.cls-12{fill:#548f52;}.cls-13{fill:#79bf78;}.cls-14{fill:#fff;}.cls-15{fill:none;stroke:#548f52;stroke-miterlimit:10;}</style><clipPath id="clip-path"><circle id="container" class="cls-1" cx="93.3" cy="93.3" r="93.3"/></clipPath><clipPath id="clip-path-2"><path class="cls-2" d="M95.94,33a135.69,135.69,0,0,1,18.76,1.69,40.1,40.1,0,0,1,12.59,3.8c13.89,7.4,12,24.57,11.81,37.88a13.76,13.76,0,0,1,10.5,15,13.76,13.76,0,0,1-14.45,11.21c-3.82,9.21-7.92,16.65-13.3,20.67-2.73,2-6.92,2.52-8.1,5.72-1.12,3,.81,6.25,2.55,9,5.4,8.47,9.79,17.8,11.08,27.76,1.34,10.3-.91,23.13-9,30.31a27.69,27.69,0,0,1-13.39,6c-11.74,2.16-30.23,2.3-38.57-7.9-6.36-7.78-8.45-18.46-7.16-28.43s5.68-19.29,11.09-27.76c1.74-2.73,3.67-6,2.55-9-1.18-3.2-5.38-3.68-8.11-5.72-5.37-4-9.48-11.46-13.3-20.67A13.74,13.74,0,0,1,37,91.32a13.75,13.75,0,0,1,10.5-15C47.26,59.63,44.15,39.1,70.94,34.7A137.69,137.69,0,0,1,95.94,33Z"/></clipPath><clipPath id="clip-path-3"><path class="cls-3" d="M166.37,158.19c-1.64-4.22-3.63-8.55-7.25-11.27-3-2.29-6.89-3.17-10.62-3.95q-8.56-1.8-17.12-3.46l-6.74-1.4-25.53,1.4-5.82,28.2h-.11l-5.82-28.2-21.7-3.57-10.74,3.57-16.09,5.31c-3,1-6,2-8.34,4.16-2.61,2.44-3.85,6-4.9,9.38a212.37,212.37,0,0,0-5.47,21.51c-1,4.89-1.72,10.24.63,14.63,2.49,4.66,7.76,7,12.7,8.83,21.24,7.91,43.48,12.93,65.93,16,7.7,1.06,15.49,1.89,23.25,1.3s15.53-2.67,22-7l-2.23.57c5.67-3.45,11.38-6.92,16.32-11.35s9.11-9.94,11-16.31C172.36,177.22,169.86,167.22,166.37,158.19Z"/></clipPath></defs><g id="Layer_2" data-name="Layer 2"><g id="Bob"><g id="Bob-2" data-name="Bob"><circle id="container-2" data-name="container" class="cls-1" cx="93.3" cy="93.3" r="93.3"/><g class="cls-4"><g id="profile"><path class="cls-5" d="M56.28,99.15c-4-.53-8.07-2.17-10.68-5.28C42.79,90.53,42,86,41.48,81.66a114.93,114.93,0,0,1,1.06-32.6c1.65-9.37,4.78-19,11.84-25.41,5.86-5.3,13.77-7.73,21.56-9a94.72,94.72,0,0,1,50.38,5.46c5.41,2.17,10.87,5.06,14,10,3,4.67,3.39,10.46,3.72,16l1.39,22.75c.3,5,.57,10.14-1.47,14.67-2.71,6-8.94,9.67-15,12.35a113.89,113.89,0,0,1-46,9.66,25.11,25.11,0,0,1-9-1.23,11.93,11.93,0,0,1-3.5-2.08c-.93-.82-1.5-2-2.46-2.77A2.86,2.86,0,0,0,65.76,99c-1.34.15-2.67.31-4,.37A32.13,32.13,0,0,1,56.28,99.15Z"/><path class="cls-6" d="M144.61,213.61c-6.45,4.35-14.23,6.43-22,7s-15.55-.24-23.25-1.3c-22.45-3.07-44.7-8.09-65.93-16-4.94-1.84-10.21-4.17-12.7-8.82-2.35-4.4-1.61-9.75-.63-14.64a215,215,0,0,1,5.46-21.51c1.06-3.41,2.3-6.94,4.91-9.38,2.29-2.14,5.36-3.18,8.34-4.16l35.42-11.69c0-.08.09-.94.09-1-.25-.17,1-.09.77-.26,24.87,1.53,49,6,73.38,11.12,3.73.78,7.58,1.66,10.63,3.95,3.62,2.72,5.61,7.05,7.24,11.27,3.49,9,6,19,3.3,28.33-1.85,6.37-6,11.87-11,16.31s-10.65,7.9-16.32,11.35"/><rect class="cls-7" x="60.65" y="126.74" width="65.11" height="20.17" rx="2.6"/><path class="cls-2" d="M95.94,33a135.69,135.69,0,0,1,18.76,1.69,40.1,40.1,0,0,1,12.59,3.8c13.89,7.4,12,24.57,11.81,37.88a13.76,13.76,0,0,1,10.5,15,13.76,13.76,0,0,1-14.45,11.21c-3.82,9.21-7.92,16.65-13.3,20.67-2.73,2-6.92,2.52-8.1,5.72-1.12,3,.81,6.25,2.55,9,5.4,8.47,9.79,17.8,11.08,27.76,1.34,10.3-.91,23.13-9,30.31a27.69,27.69,0,0,1-13.39,6c-11.74,2.16-30.23,2.3-38.57-7.9-6.36-7.78-8.45-18.46-7.16-28.43s5.68-19.29,11.09-27.76c1.74-2.73,3.67-6,2.55-9-1.18-3.2-5.38-3.68-8.11-5.72-5.37-4-9.48-11.46-13.3-20.67A13.74,13.74,0,0,1,37,91.32a13.75,13.75,0,0,1,10.5-15C47.26,59.63,44.15,39.1,70.94,34.7A137.69,137.69,0,0,1,95.94,33Z"/><g class="cls-8"><path class="cls-9" d="M113.2,126c-5.15,4-10.53,8.41-12.75,14.56a28.32,28.32,0,0,0-1.38,8.88c-.15,5.15.24,10.31,0,15.46s-1.18,10.38-3.75,14.85c-.74,1.29-1.79,2.62-3.27,2.82a5.52,5.52,0,0,1-3.61-1.29c-4.47-2.92-9-5.88-12.62-9.8-5.54-6-8.62-14-10-22.05a85.07,85.07,0,0,1-1-14.79c0-2.48.1-5,.21-7.43,0-.76,0-1.75.82-2.11s2,.18,2.81.38a100.79,100.79,0,0,0,14.23,2.35,102.43,102.43,0,0,0,14.34.29,101.35,101.35,0,0,0,14.31-1.77A5.64,5.64,0,0,0,113.2,126Z"/></g><path class="cls-5" d="M81.08,24c-5.71.72-11.45,1.67-16.79,3.8S54,33.34,50.82,38.15C47,43.91,46.21,51.07,45.74,57.94c-.38,5.46-.58,11,.72,16.34s4.3,10.45,9,13.18L57.32,57.6c.25-4.17.56-8.52,2.66-12.14a16.58,16.58,0,0,1,7.83-6.6c3.89-1.71,7.78-1.68,12-1.86q9.3-.41,18.6-.35c5.74,0,11.78-.41,17.4.9,4.75,1.1,9.35,3.7,11.8,7.91,2.1,3.62,2.41,8,2.66,12.14l1.81,29.86c4.75-2.73,7.75-7.86,9.05-13.18s1.1-10.88.72-16.34c-.47-6.87-1.3-14-5.08-19.79-3.15-4.81-8.12-8.22-13.47-10.35S112.2,24.72,106.49,24Z"/><path class="cls-10" d="M166.37,158.19c-1.64-4.22-3.63-8.55-7.25-11.27-3-2.29-6.89-3.17-10.62-3.95q-8.56-1.8-17.12-3.46l-6.74-1.4-25.53,1.4-5.82,28.2h-.11l-5.82-28.2-21.7-3.57-10.74,3.57-16.09,5.31c-3,1-6,2-8.34,4.16-2.61,2.44-3.85,6-4.9,9.38a212.37,212.37,0,0,0-5.47,21.51c-1,4.89-1.72,10.24.63,14.63,2.49,4.66,7.76,7,12.7,8.83,21.24,7.91,43.48,12.93,65.93,16,7.7,1.06,15.49,1.89,23.25,1.3s15.53-2.67,22-7l-2.23.57c5.67-3.45,11.38-6.92,16.32-11.35s9.11-9.94,11-16.31C172.36,177.22,169.86,167.22,166.37,158.19Z"/><g class="cls-11"><polygon class="cls-12" points="93.3 167.71 101.4 147.68 112.35 155.74 125.28 139.83 122.34 132.62 99.11 139.51 93.3 167.71"/><path class="cls-12" d="M78.61,148c2.15.72,4.67.34,6.55,1.62a8.7,8.7,0,0,1,2.73,4.18l5.5,13.67-4-26.5a8.23,8.23,0,0,0-1.13-3.59,5,5,0,0,0-3.54-1.94,8.63,8.63,0,0,0-4.07.66,13.75,13.75,0,0,0-3.13,1.7,14,14,0,0,0-2.62,2.48c-.19.23-.37.47-.54.71a1.29,1.29,0,0,0-.31.63,2.65,2.65,0,0,0,.08.63c0,.28.07.55.13.82a6.8,6.8,0,0,0,1.42,2.87,6.51,6.51,0,0,0,2.58,1.92Z"/><path class="cls-12" d="M141.92,139.62a1,1,0,0,0-.35-.71c-1.12-1.19-3.57-1.29-5.06-1.62a33,33,0,0,0-6.71-.77c-2.52-.06-5.2.26-7.2,1.79a9.76,9.76,0,0,0-3.13,4.77q-.24.72-.42,1.44c-.09.35-.3.82,0,1.14,1.28,1.63,4.63-1.22,5.76-2,4.52-3,8.93-2.79,14.16-2.88C139.64,140.8,141.88,140.53,141.92,139.62Z"/></g><path class="cls-13" d="M62.71,126.74l24.56,12.77L74.06,155.74,60.65,140.46V128.8a2.07,2.07,0,0,1,2.06-2.06Z"/><path class="cls-6" d="M123.7,126.74,99.17,139.51l13.18,16.23,13.41-15.28V128.8a2.06,2.06,0,0,0-2.06-2.06Z"/><path class="cls-12" d="M93.39,167.44s-1.86,4.41-1.52,5.94,0,39.83,0,39.83h-.09Z"/><path class="cls-14" d="M97.27,177.51a.92.92,0,0,1,1.31-.25,1.54,1.54,0,0,1,.77,1.38,2.79,2.79,0,0,1-.57,1.53C97.32,182.24,96.46,178.75,97.27,177.51Z"/><path class="cls-14" d="M97.65,193.54c-.22.06-.44-.09-.66-.57a3.8,3.8,0,0,1-.35-1.85,2.14,2.14,0,0,1,.28-1,1,1,0,0,1,1.51-.22,2,2,0,0,1,.29,1.44C98.67,191.9,98.2,193.4,97.65,193.54Z"/><path class="cls-15" d="M103.65,178.11c-2.21,5.23-1,11.16-.67,16.82A56.77,56.77,0,0,1,100.65,215"/></g></g></g></g></g></svg>