<svg xmlns="http://www.w3.org/2000/svg" xmlns:xlink="http://www.w3.org/1999/xlink" viewBox="0 0 186.6 186.6"><defs><style>.cls-1{fill:#b5917c;}.cls-2,.cls-5{fill:#8ac989;}.cls-2{clip-rule:evenodd;}.cls-3{fill:#f2dea2;}.cls-4{fill:#2e2b3b;}.cls-10,.cls-11,.cls-12,.cls-13,.cls-4,.cls-5,.cls-8{fill-rule:evenodd;}.cls-6{fill:#497d48;}.cls-7{clip-path:url(#clip-path);}.cls-8{fill:#9c7761;}.cls-9{clip-path:url(#clip-path-2);}.cls-10{fill:#548f52;}.cls-11{fill:#79bf78;}.cls-12{fill:#fff;}.cls-13{fill:none;stroke:#548f52;stroke-miterlimit:10;}</style><clipPath id="clip-path"><path class="cls-1" d="M149.6,91.32a13.75,13.75,0,0,1-14.45,11.21c-3.82,9.21-7.92,16.65-13.3,20.67-2.73,2-6.92,2.52-8.1,5.72-1.12,3,.81,6.26,2.55,9,5.4,8.47,9.79,17.8,11.09,27.77a44,44,0,0,1-.6,14.73,93.58,93.58,0,0,1-66.94,0,42.53,42.53,0,0,1-.64-14.75,60.42,60.42,0,0,1,6.2-19.2,96.61,96.61,0,0,1,4.89-8.57c1.74-2.72,3.67-6,2.55-9a6.32,6.32,0,0,0-3.42-3.28,31,31,0,0,1-4.68-2.44c-5.38-4-9.48-11.46-13.3-20.67A13.75,13.75,0,0,1,37,91.32a13.76,13.76,0,0,1,10.5-15C47.26,59.63,44.15,39.1,70.94,34.7a138.6,138.6,0,0,1,25-1.72,135.69,135.69,0,0,1,18.76,1.69,40.36,40.36,0,0,1,12.59,3.8c13.89,7.4,12,24.57,11.81,37.88A13.76,13.76,0,0,1,149.6,91.32Z"/></clipPath><clipPath id="clip-path-2"><path class="cls-2" d="M164.41,153.69a93.28,93.28,0,0,1-138.61,4c1-3.2,2.25-6.44,4.69-8.72s5.36-3.18,8.34-4.16l16.09-5.31,10.74-3.57,21.7,3.57,5.82,28.2h.11l5.82-28.2,25.53-1.4,6.74,1.4q8.55,1.65,17.12,3.46c3.73.78,7.58,1.66,10.62,3.95A18.81,18.81,0,0,1,164.41,153.69Z"/></clipPath></defs><g id="Layer_2" data-name="Layer 2"><g id="Bob"><g id="Bob-2" data-name="Bob"><path class="cls-3" d="M186.6,93.3A93.3,93.3,0,1,1,93.3,0,92.84,92.84,0,0,1,186.6,93.3Z"/><path class="cls-4" d="M56.28,99.15c-4-.52-8.06-2.17-10.68-5.28C42.8,90.54,42,86,41.49,81.66a114.48,114.48,0,0,1,1-32.59c1.66-9.38,4.78-19,11.84-25.42,5.86-5.3,13.77-7.73,21.57-9a94.6,94.6,0,0,1,50.37,5.47c5.41,2.16,10.87,5,14,10,3,4.67,3.39,10.46,3.72,16l1.39,22.75c.31,5,.57,10.14-1.46,14.67-2.72,6-9,9.67-15,12.35a113.72,113.72,0,0,1-46,9.66,24.92,24.92,0,0,1-9-1.23,11.93,11.93,0,0,1-3.5-2.08c-.93-.81-1.5-2-2.46-2.77A2.9,2.9,0,0,0,65.76,99c-1.34.15-2.67.31-4,.37A32.13,32.13,0,0,1,56.28,99.15Z"/><path class="cls-5" d="M164.41,153.69a93.28,93.28,0,0,1-138.61,4c1-3.2,2.25-6.44,4.69-8.72s5.37-3.18,8.34-4.16l35.42-11.69c0-.08.09-.94.09-1-.25-.17,1-.09.77-.26,24.87,1.53,49,6,73.39,11.12,3.73.78,7.58,1.67,10.62,4A18.8,18.8,0,0,1,164.41,153.69Z"/><rect class="cls-6" x="60.66" y="126.75" width="65.11" height="20.17" rx="2.6"/><path class="cls-1" d="M149.6,91.32a13.75,13.75,0,0,1-14.45,11.21c-3.82,9.21-7.92,16.65-13.3,20.67-2.73,2-6.92,2.52-8.1,5.72-1.12,3,.81,6.26,2.55,9,5.4,8.47,9.79,17.8,11.09,27.77a44,44,0,0,1-.6,14.73,93.58,93.58,0,0,1-66.94,0,42.53,42.53,0,0,1-.64-14.75,60.42,60.42,0,0,1,6.2-19.2,96.61,96.61,0,0,1,4.89-8.57c1.74-2.72,3.67-6,2.55-9a6.32,6.32,0,0,0-3.42-3.28,31,31,0,0,1-4.68-2.44c-5.38-4-9.48-11.46-13.3-20.67A13.75,13.75,0,0,1,37,91.32a13.76,13.76,0,0,1,10.5-15C47.26,59.63,44.15,39.1,70.94,34.7a138.6,138.6,0,0,1,25-1.72,135.69,135.69,0,0,1,18.76,1.69,40.36,40.36,0,0,1,12.59,3.8c13.89,7.4,12,24.57,11.81,37.88A13.76,13.76,0,0,1,149.6,91.32Z"/><g class="cls-7"><path class="cls-8" d="M113.2,126c-5.14,4-10.53,8.41-12.75,14.56a28.62,28.62,0,0,0-1.38,8.88c-.15,5.15.24,10.31,0,15.46s-1.18,10.38-3.75,14.85c-.74,1.3-1.79,2.62-3.27,2.82a5.59,5.59,0,0,1-3.61-1.28c-4.47-2.92-9-5.89-12.61-9.81-5.55-6-8.63-14-10-22.05a85.07,85.07,0,0,1-1-14.79c0-2.47.1-4.95.21-7.43,0-.76,0-1.75.83-2.1s2,.17,2.8.37a100.79,100.79,0,0,0,14.23,2.35,102.43,102.43,0,0,0,14.34.29,101.35,101.35,0,0,0,14.31-1.77A5,5,0,0,0,113.2,126Z"/></g><path class="cls-4" d="M81.08,24a68.18,68.18,0,0,0-16.79,3.8C59,29.93,54,33.34,50.82,38.15c-3.77,5.77-4.6,12.92-5.08,19.79-.38,5.46-.58,11,.72,16.35s4.3,10.44,9,13.18L57.32,57.6c.25-4.17.56-8.52,2.66-12.13a16.59,16.59,0,0,1,7.83-6.61c3.89-1.7,7.78-1.68,12-1.86q9.3-.39,18.61-.34c5.73,0,11.78-.42,17.39.89,4.75,1.11,9.36,3.71,11.8,7.92,2.11,3.61,2.41,8,2.66,12.13l1.82,29.87c4.74-2.74,7.74-7.86,9.05-13.18s1.09-10.89.71-16.35c-.47-6.87-1.3-14-5.07-19.79-3.15-4.81-8.13-8.22-13.48-10.35S112.2,24.72,106.49,24Z"/><path class="cls-5" d="M164.41,153.69a93.28,93.28,0,0,1-138.61,4c1-3.2,2.25-6.44,4.69-8.72s5.36-3.18,8.34-4.16l16.09-5.31,10.74-3.57,21.7,3.57,5.82,28.2h.11l5.82-28.2,25.53-1.4,6.74,1.4q8.55,1.65,17.12,3.46c3.73.78,7.58,1.66,10.62,3.95A18.81,18.81,0,0,1,164.41,153.69Z"/><g class="cls-9"><polygon class="cls-10" points="93.3 167.71 101.41 147.68 112.35 155.74 125.28 139.83 122.34 132.62 99.11 139.51 93.3 167.71"/><path class="cls-10" d="M78.62,148c2.14.72,4.67.34,6.54,1.62a8.7,8.7,0,0,1,2.73,4.18l5.5,13.67-4-26.49a8.16,8.16,0,0,0-1.14-3.6,5,5,0,0,0-3.54-1.94,8.76,8.76,0,0,0-4.07.66,14,14,0,0,0-3.13,1.71,14.25,14.25,0,0,0-2.62,2.47c-.19.23-.37.47-.54.71a1.29,1.29,0,0,0-.31.63,2.8,2.8,0,0,0,.08.64c0,.27.07.54.13.81a7,7,0,0,0,1.42,2.88,6.66,6.66,0,0,0,2.59,1.92Z"/><path class="cls-10" d="M141.92,139.63a1,1,0,0,0-.35-.72c-1.12-1.18-3.57-1.29-5.06-1.62a34.42,34.42,0,0,0-6.71-.77c-2.52-.05-5.19.26-7.2,1.79a9.65,9.65,0,0,0-3.12,4.78,14,14,0,0,0-.43,1.44c-.09.34-.3.81,0,1.13,1.29,1.63,4.63-1.22,5.76-2,4.53-3,8.93-2.79,14.16-2.88C139.64,140.8,141.88,140.53,141.92,139.63Z"/></g><path class="cls-11" d="M62.72,126.75l24.55,12.76-13.2,16.23L60.66,140.47V128.81a2.06,2.06,0,0,1,2.06-2.06Z"/><path class="cls-5" d="M123.7,126.75,99.17,139.51l13.18,16.23,13.41-15.27V128.81a2.06,2.06,0,0,0-2.06-2.06Z"/><path class="cls-10" d="M92.72,186.59l.67-19.15s-1.86,4.41-1.52,5.95c.13.57.16,6.27.15,13.19Z"/><path class="cls-12" d="M97.27,177.51a.92.92,0,0,1,1.32-.24,1.5,1.5,0,0,1,.76,1.37,2.75,2.75,0,0,1-.57,1.54C97.32,182.24,96.46,178.75,97.27,177.51Z"/><path class="cls-13" d="M102.36,186.16a19.56,19.56,0,0,1,1.29-8"/></g></g></g></svg>