<svg xmlns="http://www.w3.org/2000/svg" xmlns:xlink="http://www.w3.org/1999/xlink" viewBox="0 0 186.6 226.28"><defs><style>.cls-1{fill:#97cadb;}.cls-2{fill:#f1dbcb;}.cls-3{fill:#6976ae;}.cls-4{clip-path:url(#clip-path);}.cls-5{fill:#4a2118;}.cls-6{clip-path:url(#clip-path-2);}.cls-7{fill:#efc7b0;}.cls-8{clip-path:url(#clip-path-3);}.cls-9{fill:#464e73;}</style><clipPath id="clip-path"><circle id="container" class="cls-1" cx="93.3" cy="93.3" r="93.3"/></clipPath><clipPath id="clip-path-2"><path class="cls-2" d="M93.29,200.51a59.05,59.05,0,0,1-11.05-1.27c-10.56-2.26-19-8.89-21.76-19.59-4-15.46,1.73-30.9,10-43.86,1.72-2.71,3.64-5.91,2.53-8.92-1.17-3.17-5.33-3.65-8-5.67-5.33-4-9.41-11.37-13.19-20.5A13.64,13.64,0,0,1,37.45,89.58,13.63,13.63,0,0,1,47.86,74.73,47.68,47.68,0,0,1,66.72,36.24c13.54-10,34.11-11,48.76-2.83C130,41.49,139,58.14,138.74,74.73a13.64,13.64,0,0,1,10.41,14.85,13.64,13.64,0,0,1-14.33,11.12c-3.79,9.13-7.86,16.51-13.19,20.5-2.71,2-6.87,2.5-8,5.67-1.11,3,.8,6.21,2.53,8.92,10.17,16,19.2,44.16.91,58.33C110.76,199,101.81,200.68,93.29,200.51Z"/></clipPath><clipPath id="clip-path-3"><path class="cls-3" d="M89.35,225.41c-22.79-6.49-44.6-17.63-61.21-34.52-1.95-2-3.9-4.2-4.35-6.93a13.88,13.88,0,0,1,.84-6.19c2.12-7,4.75-14,9-19.9,3.9-5.42,12.7-9.24,20.26-13.4,9.47-5.21,17.5-10.15,17.45-10.19,6,6.12,12.82,7.81,21.36,7.95s16.06-2.45,22.22-8.37c10.41,3.77,21.14,7.46,31.55,11.24,3.49,1.26,7.1,2.6,9.79,5.17,3.08,2.94,4.6,7.23,4.93,11.48.5,6.6-1.66,13.2-5,18.9s-7.88,10.62-12.48,15.38c-6.67,6.91-13.63,13.61-21.48,19.14C112.42,222.08,100.88,228.7,89.35,225.41Z"/></clipPath></defs><g id="Layer_2" data-name="Layer 2"><g id="Charlie"><g id="Charlie-2" data-name="Charlie"><circle id="container-2" data-name="container" class="cls-1" cx="93.3" cy="93.3" r="93.3"/><g class="cls-4"><g id="profile"><path class="cls-5" d="M43,89.51C36.3,75.94,40.29,58.86,46.75,46,54.2,31.17,66.5,20.31,83.35,18a59.25,59.25,0,0,1,29.33,3.89,59.32,59.32,0,0,1,23.64,16.31c11.38,13.29,14.93,33,7,48.94-3.36,6.78-8.88,12.87-16.21,15.71-7.88,3-16.78,2-25.22,1l-15.91-2c-5.13-.65-10.37-1.65-15.54-1.88-3.14-.14-5.76.9-8.75,1.58-3.32.75-6.57-.35-9.4-2A23.89,23.89,0,0,1,43,89.51Z"/><path class="cls-2" d="M93.29,200.51a59.05,59.05,0,0,1-11.05-1.27c-10.56-2.26-19-8.89-21.76-19.59-4-15.46,1.73-30.9,10-43.86,1.72-2.71,3.64-5.91,2.53-8.92-1.17-3.17-5.33-3.65-8-5.67-5.33-4-9.41-11.37-13.19-20.5A13.64,13.64,0,0,1,37.45,89.58,13.63,13.63,0,0,1,47.86,74.73,47.68,47.68,0,0,1,66.72,36.24c13.54-10,34.11-11,48.76-2.83C130,41.49,139,58.14,138.74,74.73a13.64,13.64,0,0,1,10.41,14.85,13.64,13.64,0,0,1-14.33,11.12c-3.79,9.13-7.86,16.51-13.19,20.5-2.71,2-6.87,2.5-8,5.67-1.11,3,.8,6.21,2.53,8.92,10.17,16,19.2,44.16.91,58.33C110.76,199,101.81,200.68,93.29,200.51Z"/><g class="cls-6"><path class="cls-7" d="M45.4,75.31l3.05,7.08s3.06,17.77,3.33,18.31-5.52,4.19-5.52,4.19L32.13,95.28,28.3,84.47l2.81-8.77Z"/><path class="cls-7" d="M100.4,126.71c-5.74,2.44-8.19,9.3-7.68,15.52.58,6.92-.39,13.78-.24,20-1.93-2.14-8.56-7.07-10.41-9.28s-3.66-4.46-5.41-6.74-3.49-4.62-5.17-7-3.29-4.73-4.86-7.14q-1.17-1.81-2.31-3.63a27.68,27.68,0,0,1-2.17-3.77c-.31-.73-.83-1.94.31-2.15a5,5,0,0,1,2.76.59,55.25,55.25,0,0,0,8,2.64,61.82,61.82,0,0,0,8.33,1.48,68.25,68.25,0,0,0,8.46.37,72.32,72.32,0,0,0,8.44-.65A8.08,8.08,0,0,0,100.4,126.71Z"/><path class="cls-7" d="M137.3,67.23c.3-4.47-2.31-8.78-5.89-11.47s-8-4-12.42-4.8a67.54,67.54,0,0,0-16.71-1c-2.07.14-4.72.14-6.22,1.81a3.47,3.47,0,0,0-.3,4.35,9.91,9.91,0,0,0,2.53,2.11c1,.68,2,1.32,3,1.93a52.81,52.81,0,0,0,6.36,3.24,53.78,53.78,0,0,0,6.73,2.38,55.72,55.72,0,0,0,7,1.49,54.8,54.8,0,0,0,7.12.56,53.61,53.61,0,0,0,7.16-.39A15.65,15.65,0,0,0,137.3,67.23Z"/><path class="cls-7" d="M78.81,33.16a5.36,5.36,0,0,0-4.45-.34,14.66,14.66,0,0,0-4,2.29A73.91,73.91,0,0,0,50.28,56.7c-5,8.53-7.85,18.49-7.12,28.36a19.16,19.16,0,0,0,.7,4.25c.24.79.82,3,1.9,3s1.59-1.45,1.74-2.23c.24-1.23.29-2.51.47-3.75q.56-3.8,1.46-7.52t2.15-7.32c.83-2.4,1.77-4.77,2.81-7.09s2.19-4.59,3.44-6.81,2.61-4.4,4.06-6.5,3-4.12,4.62-6.07,3.35-3.83,5.16-5.62,3.7-3.49,5.67-5.1C77.83,33.93,78.31,33.54,78.81,33.16Z"/><path class="cls-7" d="M128.47,114.47a84.32,84.32,0,0,1-11.8,15.16,54.27,54.27,0,0,0,15.15-17.38,29.93,29.93,0,0,0,3.1-7.74,17.14,17.14,0,0,0,.37-5.2c0-.44-.09-.87-.17-1.31,0-.21-.09-.43-.14-.64a1.72,1.72,0,0,0-.16-.61c-.3-.33-.37.53-.38.64-.05.45-.11.89-.18,1.34a38,38,0,0,1-1.17,5.26,46.08,46.08,0,0,1-1.86,5.08,50.46,50.46,0,0,1-2.42,4.82C128.7,114.09,128.59,114.28,128.47,114.47Z"/><path class="cls-7" d="M134.11,82.38a9.7,9.7,0,0,0,2.55-2.53c.92-1.27,2.07-2.55,3.61-2.82a8.09,8.09,0,0,1,4.47.83c0-1.79-1.56-3.35-3.2-4.08-1.19-.53-3.74-.75-4.43.7-.33.69-.51,1.48-.79,2.2-.4,1-.82,2.09-1.26,3.12S134.65,81.24,134.11,82.38Z"/></g><path class="cls-5" d="M88.24,21.29c10.57-1,22.08-1.79,30.92,4.07,6.35,4.21,10.22,11.17,15.18,17s12.4,10.78,19.76,8.81a51.4,51.4,0,0,1-46.2,12.13,49.18,49.18,0,0,1-12.65-5A51.88,51.88,0,0,1,84.32,50a51.33,51.33,0,0,1-8.4-10.78C74.1,36.11,71.55,32,73.54,28.36c2.56-4.62,7.72-6.29,12.63-6.85Z"/><path class="cls-5" d="M48.45,82.39A56.72,56.72,0,0,1,76.11,36a13.21,13.21,0,0,0,3.68-2.67,3.9,3.9,0,0,0,.71-4.23,4.68,4.68,0,0,0-3.7-2C71,26.46,65.48,29.68,61.08,33.5A53.88,53.88,0,0,0,48.26,50.12,54.82,54.82,0,0,0,44.45,60q-.69,2.53-1.14,5.12c-.25,1.46-.79,3.31-.31,4.76.64,1.93,1.73,3.82,2.53,5.69Z"/><path class="cls-5" d="M134.42,60.47a26.69,26.69,0,0,1,1.23,8.24c0,2.58-.94,13-1.55,13.67a31.39,31.39,0,0,0,7.75-15.51c1.15-7.08-.91-14.94-6.51-19.7-1.49-1.26-3.56-2.32-5.34-1.51a5,5,0,0,0-2.19,5.66c.46,1.11,1.73,1.71,2.56,2.51a15.7,15.7,0,0,1,2.43,3.08A17.86,17.86,0,0,1,134.42,60.47Z"/><path class="cls-3" d="M89.35,225.41c-22.79-6.49-44.6-17.63-61.21-34.52-1.95-2-3.9-4.2-4.35-6.93a13.88,13.88,0,0,1,.84-6.19c2.12-7,4.75-14,9-19.9,3.9-5.42,12.7-9.24,20.26-13.4,9.47-5.21,17.5-10.15,17.45-10.19,6,6.12,12.82,7.81,21.36,7.95s16.06-2.45,22.22-8.37c10.41,3.77,21.14,7.46,31.55,11.24,3.49,1.26,7.1,2.6,9.79,5.17,3.08,2.94,4.6,7.23,4.93,11.48.5,6.6-1.66,13.2-5,18.9s-7.88,10.62-12.48,15.38c-6.67,6.91-13.63,13.61-21.48,19.14C112.42,222.08,100.88,228.7,89.35,225.41Z"/><g class="cls-8"><path class="cls-9" d="M68.58,138.37c8.88,5.3,19.22,8.44,29.55,7.85s20.58-5.15,27.15-13.14l-9.21-2.83a7.33,7.33,0,0,0-4.27-.42,9,9,0,0,0-2.87,1.95c-4.3,3.56-10.08,5-15.66,4.87s-11-1.55-16.4-3.16a19.93,19.93,0,0,0-5.79-1.16,7.07,7.07,0,0,0-4.26,1.32c-.4.3-1.11.8-1.14,1.36a2.82,2.82,0,0,0,.89,1.82A8.39,8.39,0,0,0,68.58,138.37Z"/><path class="cls-9" d="M50.88,178.27c-.39-13.68-.11-3.66.8,28.59-1.82-2.2-6.24-.56-7.71-3a4.74,4.74,0,0,1-.35-2.92q.57-6,1.26-12.05t1.48-12c.54-4,1.1-8,1.71-12,.15-1,.31-2,.46-3,.08-.5.09-1.2.77-.94,1.45.56,1.16,2.6,1.19,3.79l.35,12.14C50.85,177.31,50.87,177.79,50.88,178.27Z"/><path class="cls-9" d="M148.07,151.72a45.56,45.56,0,0,0-6.91,19.09,113.45,113.45,0,0,0-.65,20.44c.25,7.3.68,14.6,1.1,21.89"/></g></g></g></g></g></g></svg>