<svg xmlns="http://www.w3.org/2000/svg" xmlns:xlink="http://www.w3.org/1999/xlink" viewBox="0 0 186.59 186.6"><defs><style>.cls-1{fill:#f1dbcb;}.cls-2{fill:#6976ae;}.cls-3{fill:#97cadb;}.cls-4{fill:#4a2118;}.cls-5{clip-path:url(#clip-path);}.cls-6{fill:#efc7b0;}.cls-7{clip-path:url(#clip-path-2);}.cls-8{fill:#464e73;}</style><clipPath id="clip-path"><path class="cls-1" d="M149.15,89.58a13.64,13.64,0,0,1-14.33,11.12c-3.79,9.13-7.87,16.51-13.2,20.5-2.7,2-6.87,2.5-8,5.68-1.11,3,.81,6.2,2.53,8.91,7.52,11.78,14.41,30.26,10.12,44.82a93.51,93.51,0,0,1-65.43.16c-.12-.37-.22-.74-.32-1.12-4-15.46,1.73-30.9,10-43.86,1.73-2.71,3.64-5.9,2.53-8.91-1.17-3.18-5.33-3.65-8-5.68-5.33-4-9.4-11.37-13.19-20.5A13.64,13.64,0,0,1,37.44,89.58,13.64,13.64,0,0,1,47.86,74.73,47.66,47.66,0,0,1,66.72,36.24c13.53-10,34.1-11,48.76-2.83C130,41.5,139,58.14,138.73,74.73A13.65,13.65,0,0,1,149.15,89.58Z"/></clipPath><clipPath id="clip-path-2"><path class="cls-2" d="M160.57,157.93A93.26,93.26,0,0,1,30.73,162.5a45.57,45.57,0,0,1,2.92-4.63c3.89-5.42,12.7-9.24,20.26-13.4,9.44-5.2,17.45-10.12,17.45-10.19,6,6.12,12.82,7.81,21.36,7.95s16.06-2.45,22.22-8.37c10.4,3.77,21.14,7.46,31.54,11.24,3.5,1.27,7.1,2.6,9.79,5.17A16.1,16.1,0,0,1,160.57,157.93Z"/></clipPath></defs><g id="Layer_2" data-name="Layer 2"><g id="Charlie"><g id="Charlie-2" data-name="Charlie"><path class="cls-3" d="M186.59,93.3a92.93,92.93,0,0,1-26,64.63,94.08,94.08,0,0,1-14.44,12.27c-1.73,1.19-3.51,2.33-5.32,3.4a93.39,93.39,0,0,1-80,7.17,91.72,91.72,0,0,1-10-4.39h0c-1.38-.7-2.74-1.45-4.08-2.22A93.3,93.3,0,1,1,186.59,93.3Z"/><path class="cls-4" d="M43,89.51C36.3,76,40.29,58.86,46.74,46c7.45-14.83,19.75-25.69,36.61-28a59.21,59.21,0,0,1,29.32,3.89,59.32,59.32,0,0,1,23.64,16.31c11.39,13.29,14.94,33,7,48.94-3.36,6.78-8.87,12.88-16.21,15.71-7.88,3-16.78,2-25.22,1l-15.91-2c-5.13-.64-10.36-1.64-15.53-1.88-3.15-.14-5.77.9-8.75,1.58-3.32.75-6.57-.35-9.41-2A24,24,0,0,1,43,89.51Z"/><g id="profile"><path class="cls-1" d="M149.15,89.58a13.64,13.64,0,0,1-14.33,11.12c-3.79,9.13-7.87,16.51-13.2,20.5-2.7,2-6.87,2.5-8,5.68-1.11,3,.81,6.2,2.53,8.91,7.52,11.78,14.41,30.26,10.12,44.82a93.51,93.51,0,0,1-65.43.16c-.12-.37-.22-.74-.32-1.12-4-15.46,1.73-30.9,10-43.86,1.73-2.71,3.64-5.9,2.53-8.91-1.17-3.18-5.33-3.65-8-5.68-5.33-4-9.4-11.37-13.19-20.5A13.64,13.64,0,0,1,37.44,89.58,13.64,13.64,0,0,1,47.86,74.73,47.66,47.66,0,0,1,66.72,36.24c13.53-10,34.1-11,48.76-2.83C130,41.5,139,58.14,138.73,74.73A13.65,13.65,0,0,1,149.15,89.58Z"/><g class="cls-5"><path class="cls-6" d="M45.4,75.32l3.05,7.07s3,17.78,3.32,18.31-5.52,4.2-5.52,4.2L32.12,95.28,28.29,84.47,31.1,75.7Z"/><path class="cls-6" d="M100.4,126.71c-5.75,2.45-8.2,9.3-7.68,15.52.57,6.92-.39,13.79-.24,20-1.94-2.14-8.57-7.07-10.42-9.28s-3.65-4.46-5.41-6.74-3.49-4.62-5.16-7-3.29-4.74-4.86-7.15c-.79-1.2-1.56-2.41-2.32-3.63a27.62,27.62,0,0,1-2.16-3.77c-.32-.73-.83-1.93.31-2.15a5.19,5.19,0,0,1,2.75.59,54.88,54.88,0,0,0,8,2.65,61.94,61.94,0,0,0,8.34,1.47,68.09,68.09,0,0,0,8.45.37,74.55,74.55,0,0,0,8.45-.64A8.6,8.6,0,0,0,100.4,126.71Z"/><path class="cls-6" d="M137.29,67.23c.31-4.47-2.3-8.78-5.88-11.47s-8-4-12.43-4.8a68.77,68.77,0,0,0-16.71-1c-2.07.14-4.71.14-6.21,1.81a3.48,3.48,0,0,0-.31,4.35,9.76,9.76,0,0,0,2.54,2.11c1,.68,2,1.32,3,1.93a52.14,52.14,0,0,0,6.36,3.25,55.38,55.38,0,0,0,6.73,2.37,53.64,53.64,0,0,0,7,1.49,54.51,54.51,0,0,0,7.11.56,51.9,51.9,0,0,0,7.16-.39A13.13,13.13,0,0,0,137.29,67.23Z"/><path class="cls-6" d="M78.8,33.16a5.36,5.36,0,0,0-4.45-.33,14.18,14.18,0,0,0-4,2.28c-8,5.88-15.09,13-20.1,21.59s-7.85,18.49-7.13,28.37a20.3,20.3,0,0,0,.7,4.24c.24.79.83,3,1.9,3s1.6-1.46,1.75-2.24c.23-1.23.29-2.51.47-3.75.36-2.52.85-5,1.46-7.51s1.32-4.92,2.15-7.32,1.76-4.78,2.81-7.1,2.19-4.59,3.44-6.81,2.61-4.4,4.06-6.5,3-4.12,4.62-6.07,3.35-3.83,5.15-5.61a76.24,76.24,0,0,1,5.68-5.1C77.82,33.93,78.31,33.54,78.8,33.16Z"/><path class="cls-6" d="M128.47,114.48a84.25,84.25,0,0,1-11.8,15.15,54.13,54.13,0,0,0,15.14-17.38,29.58,29.58,0,0,0,3.1-7.74,17.11,17.11,0,0,0,.38-5.19q-.06-.66-.18-1.32c0-.21-.08-.42-.13-.63s-.06-.51-.17-.62c-.3-.33-.37.53-.38.65-.05.44-.11.89-.17,1.33a39.21,39.21,0,0,1-1.18,5.26,43.46,43.46,0,0,1-1.86,5.08,50.46,50.46,0,0,1-2.42,4.82Z"/><path class="cls-6" d="M134.1,82.38a9.44,9.44,0,0,0,2.56-2.53A6.14,6.14,0,0,1,140.27,77a8.11,8.11,0,0,1,4.47.83c0-1.79-1.57-3.35-3.2-4.07-1.2-.53-3.74-.75-4.43.7-.33.69-.52,1.47-.79,2.19-.4,1-.83,2.09-1.27,3.12S134.65,81.24,134.1,82.38Z"/></g></g><path class="cls-4" d="M88.24,21.3c10.56-1,22.07-1.8,30.92,4.06,6.34,4.22,10.21,11.17,15.17,17s12.41,10.79,19.77,8.82a51.45,51.45,0,0,1-46.21,12.12,49.44,49.44,0,0,1-12.65-5A52.21,52.21,0,0,1,84.32,50a51.38,51.38,0,0,1-8.41-10.78C74.1,36.11,71.55,32,73.54,28.36c2.56-4.61,7.71-6.29,12.62-6.85C86.85,21.43,87.55,21.36,88.24,21.3Z"/><path class="cls-4" d="M48.45,82.39A56.7,56.7,0,0,1,76.1,36a13.29,13.29,0,0,0,3.68-2.68,3.88,3.88,0,0,0,.72-4.23,4.71,4.71,0,0,0-3.71-2C71,26.46,65.47,29.68,61.08,33.5A54.06,54.06,0,0,0,48.25,50.12,55.06,55.06,0,0,0,44.45,60q-.71,2.53-1.15,5.12c-.25,1.46-.78,3.32-.3,4.76.64,1.93,1.72,3.82,2.53,5.69Z"/><path class="cls-4" d="M134.42,60.47a27.3,27.3,0,0,1,1.23,8.24c0,2.58-1,13-1.56,13.67a31.36,31.36,0,0,0,7.76-15.51c1.15-7.08-.92-14.94-6.51-19.69-1.49-1.27-3.56-2.33-5.35-1.51a5,5,0,0,0-2.18,5.65c.46,1.11,1.72,1.71,2.55,2.51a14.79,14.79,0,0,1,2.43,3.09A17.56,17.56,0,0,1,134.42,60.47Z"/><g id="shirt"><path class="cls-2" d="M160.57,157.93A93.26,93.26,0,0,1,30.73,162.5a45.57,45.57,0,0,1,2.92-4.63c3.89-5.42,12.7-9.24,20.26-13.4,9.44-5.2,17.45-10.12,17.45-10.19,6,6.12,12.82,7.81,21.36,7.95s16.06-2.45,22.22-8.37c10.4,3.77,21.14,7.46,31.54,11.24,3.5,1.27,7.1,2.6,9.79,5.17A16.1,16.1,0,0,1,160.57,157.93Z"/><g class="cls-7"><path class="cls-8" d="M68.57,138.37c8.89,5.3,19.23,8.45,29.56,7.85s20.58-5.14,27.15-13.14l-9.22-2.83a7.38,7.38,0,0,0-4.26-.42,8.91,8.91,0,0,0-2.87,1.95c-4.3,3.56-10.08,5-15.67,4.87s-11-1.54-16.39-3.16a20.27,20.27,0,0,0-5.79-1.16,7,7,0,0,0-4.26,1.32c-.4.3-1.11.81-1.14,1.36a2.81,2.81,0,0,0,.88,1.82A8.6,8.6,0,0,0,68.57,138.37Z"/><path class="cls-8" d="M50.81,176.25a.57.57,0,0,1,0,.13v.06a.13.13,0,0,0,0-.06c-1.38-.7-2.74-1.45-4.08-2.22q.63-4.66,1.34-9.32c.15-1,.3-2,.46-3,.08-.49.09-1.2.76-.94,1.46.57,1.17,2.6,1.2,3.8q.1,4.09.23,8.21v-.28c0,.13,0,.32,0,.54s0,.24,0,.38a2.44,2.44,0,0,0,0,.27c0,.13,0,.26,0,.4s0,.29,0,.44v-.15q0,.51,0,1.14v.08C50.81,175.86,50.81,176,50.81,176.25Z"/><path class="cls-8" d="M50.87,178.27c0-.51,0-1,0-1.44,0,.24,0,.48,0,.72S50.86,178,50.87,178.27Z"/><path class="cls-8" d="M148.07,151.72l-1.94,18.48c-1.73,1.19-3.51,2.33-5.32,3.4.09-.93.21-1.86.34-2.79A45.43,45.43,0,0,1,148.07,151.72Z"/></g></g></g></g></g></svg>