<svg xmlns="http://www.w3.org/2000/svg" xmlns:xlink="http://www.w3.org/1999/xlink" viewBox="0 0 186.59 186.6"><defs><style>.cls-1{fill:#f2e4da;}.cls-2{fill:#e9d7de;}.cls-3{fill:#f7b592;}.cls-4{fill:#280c36;}.cls-5{fill:#09030d;}.cls-6{clip-path:url(#clip-path);}.cls-7{fill:#efc7b0;}.cls-8{clip-path:url(#clip-path-2);}.cls-9{fill:#937098;}.cls-10{fill:#221c25;}</style><clipPath id="clip-path"><path class="cls-1" d="M149.15,89.58a13.64,13.64,0,0,1-14.33,11.12c-3.79,9.13-7.86,16.51-13.19,20.5-2.71,2-6.87,2.5-8,5.68-1.11,3,.8,6.2,2.53,8.91,7.52,11.79,14.41,30.27,10.12,44.83a93.55,93.55,0,0,1-32.94,6c-2,0-3.89-.06-5.81-.18a92.73,92.73,0,0,1-26.69-5.64c-.11-.37-.22-.75-.32-1.13-4-15.46,1.73-30.9,10-43.86,1.72-2.71,3.64-5.9,2.53-8.91-1.17-3.18-5.34-3.65-8-5.68-5.33-4-9.41-11.37-13.2-20.5A13.64,13.64,0,0,1,37.44,89.58,13.65,13.65,0,0,1,47.86,74.73C47.65,59.94,54.76,45,66.72,36.24c13.54-10,34.11-11,48.76-2.83C130,41.5,139,58.14,138.73,74.73A13.64,13.64,0,0,1,149.15,89.58Z"/></clipPath><clipPath id="clip-path-2"><path class="cls-2" d="M160.57,157.94a93.36,93.36,0,0,1-25,18.56A93.22,93.22,0,0,1,93.3,186.6c-2,0-3.89-.06-5.81-.18A92.66,92.66,0,0,1,45,173.11q-2.45-1.49-4.79-3.12a90.88,90.88,0,0,1-9.43-7.49,45.57,45.57,0,0,1,2.92-4.63c3.89-5.42,12.7-9.24,20.26-13.4,9.44-5.19,17.45-10.11,17.45-10.19,6,6.12,12.82,7.81,21.36,7.95s16.06-2.45,22.22-8.37c10.41,3.77,21.14,7.46,31.55,11.24,3.49,1.27,7.1,2.6,9.78,5.17A16,16,0,0,1,160.57,157.94Z"/></clipPath></defs><g id="Layer_2" data-name="Layer 2"><g id="Sue"><g id="Sue-2" data-name="Sue"><path class="cls-3" d="M186.59,93.3A92.81,92.81,0,0,1,170.94,145l-1.76,2.54a93.44,93.44,0,0,1-42.94,33,93.55,93.55,0,0,1-32.94,6c-2,0-3.89-.06-5.81-.18A92.83,92.83,0,0,1,45,173.11q-2.45-1.49-4.79-3.12a90.88,90.88,0,0,1-9.43-7.49A93.29,93.29,0,1,1,186.59,93.3Z"/><path class="cls-4" d="M45,173.11c8.43.7,16.79,2.7,25.06,4.63,4.84,1.13,9.7,2.24,14.58,3.27a246.18,246.18,0,0,0,25.09,4.15,92.42,92.42,0,0,0,25.88-8.66,93.6,93.6,0,0,0,33.62-28.92l1.76-2.54c.34-11.83-5-23.76-11.69-33.85l-.18-.28C153.93,103.21,148,96,142.68,88.42a92.66,92.66,0,0,1-8.57-14.74c-3.82-8.49-5.9-17.85-11.16-25.53-7.42-10.83-20.69-16.88-33.83-16.95-.77,0-1.53,0-2.29.05h-.06A50.3,50.3,0,0,0,70.38,35a77.25,77.25,0,0,0-13.24,7.47h0l-.95.63c-2.65,1.75-5.37,3.42-7.4,5.92-3.06,3.75-5.27,8.34-7.24,12.72-.36.8-.71,1.61-1.05,2.42a0,0,0,0,0,0,0c-2,4.78-3.7,9.69-5.33,14.61-.24.71-.47,1.42-.7,2.13-2.2,6.67-4.42,13.4-5.29,20.37-.76,6.08-.5,12.35-2.31,18.21C25.11,125.11,21.59,130,19,135.24a51.28,51.28,0,0,0-3.57,9.42A93.51,93.51,0,0,0,40.16,170Z"/><path class="cls-5" d="M45,173.11a92.66,92.66,0,0,0,42.54,13.31,8.28,8.28,0,0,1-2.14-2.55,7.17,7.17,0,0,1-.76-2.86c-.24-3.16,1.08-6.59.63-9.82-1-6.79-9.42-11.45-9.4-18.29,0-3.35,2.11-6.35,3-9.59a14.26,14.26,0,0,0-3-13c-1.71-2-4.13-4-3.67-6.51.31-1.71,1.92-2.94,2.71-4.51a6.84,6.84,0,0,0-.69-6.57,22.47,22.47,0,0,0-5-5.08c0-.3-1.62-1.34-1.9-1.58l-2-1.66c-1.15-.95-2.29-1.91-3.44-2.85-.15-.14-.31-.26-.46-.39l-7.91-6.57c-1.86-1.55-3.86-3.84-6.67-3.46a4.72,4.72,0,0,0-2.36,1,6.34,6.34,0,0,0-2,3.05c-1,3.14-.46,6.68.39,9.78,1.39,5.07,3.71,10.2,2.68,15.33-1,4.93-5,9.65-3.43,14.44.91,2.76,3.53,4.81,4.56,7.53,1.37,3.65-.36,7.6-1.82,11.22A82,82,0,0,0,40.16,170Z"/><path class="cls-4" d="M43,89.51C36.3,76,40.29,58.86,46.75,46c7.45-14.83,19.74-25.69,36.6-28a59.25,59.25,0,0,1,29.33,3.89,59.32,59.32,0,0,1,23.64,16.31c11.38,13.29,14.93,33,7,48.94-3.36,6.78-8.88,12.88-16.21,15.71-7.88,3-16.78,2-25.22,1l-15.91-2c-5.13-.64-10.37-1.64-15.54-1.88-3.15-.14-5.76.9-8.75,1.58-3.32.75-6.57-.35-9.4-2A24,24,0,0,1,43,89.51Z"/><path class="cls-5" d="M121.83,115.52a5,5,0,0,1,2.69-.63c1.42.18,2.44,1.42,3.28,2.59a29.84,29.84,0,0,1,5.15,10c.91,3.66.55,7.79-1.72,10.8a13.83,13.83,0,0,1-7.57,4.66c-2.7.72-5.73.88-8.14-.52-3.14-1.84-4.37-5.82-4.41-9.46a22.24,22.24,0,0,1,2.09-9.66c1-2,1.89-3.8,3.79-5.06A35.79,35.79,0,0,1,121.83,115.52Z"/><path class="cls-1" d="M149.15,89.58a13.64,13.64,0,0,1-14.33,11.12c-3.79,9.13-7.86,16.51-13.19,20.5-2.71,2-6.87,2.5-8,5.68-1.11,3,.8,6.2,2.53,8.91,7.52,11.79,14.41,30.27,10.12,44.83a93.55,93.55,0,0,1-32.94,6c-2,0-3.89-.06-5.81-.18a92.73,92.73,0,0,1-26.69-5.64c-.11-.37-.22-.75-.32-1.13-4-15.46,1.73-30.9,10-43.86,1.72-2.71,3.64-5.9,2.53-8.91-1.17-3.18-5.34-3.65-8-5.68-5.33-4-9.41-11.37-13.2-20.5A13.64,13.64,0,0,1,37.44,89.58,13.65,13.65,0,0,1,47.86,74.73C47.65,59.94,54.76,45,66.72,36.24c13.54-10,34.11-11,48.76-2.83C130,41.5,139,58.14,138.73,74.73A13.64,13.64,0,0,1,149.15,89.58Z"/><g class="cls-6"><path class="cls-7" d="M100.4,126.71c-5.74,2.45-8.19,9.3-7.68,15.52.58,6.92-.39,13.79-.24,20-1.93-2.14-8.57-7.07-10.41-9.28s-3.66-4.46-5.42-6.74-3.49-4.62-5.16-7-3.29-4.74-4.86-7.15c-.78-1.2-1.56-2.41-2.31-3.63a26.67,26.67,0,0,1-2.17-3.77c-.31-.73-.83-1.93.31-2.15a5.17,5.17,0,0,1,2.75.59,54.88,54.88,0,0,0,8,2.65,61.94,61.94,0,0,0,8.34,1.47,68.18,68.18,0,0,0,8.45.37,74.55,74.55,0,0,0,8.45-.64A8.6,8.6,0,0,0,100.4,126.71Z"/><path class="cls-7" d="M128.47,114.48a84.25,84.25,0,0,1-11.8,15.15,54,54,0,0,0,15.14-17.38,29.61,29.61,0,0,0,3.11-7.74,17.1,17.1,0,0,0,.37-5.19q-.06-.66-.18-1.32c0-.21-.08-.42-.13-.63a1.77,1.77,0,0,0-.16-.62c-.31-.33-.37.53-.39.65,0,.44-.1.89-.17,1.33a37.7,37.7,0,0,1-1.17,5.26,45.35,45.35,0,0,1-1.86,5.08,50.46,50.46,0,0,1-2.42,4.82Z"/><path class="cls-7" d="M134.11,82.38a9.41,9.41,0,0,0,2.55-2.53c.92-1.27,2.07-2.55,3.61-2.82a8.11,8.11,0,0,1,4.47.83c0-1.79-1.56-3.35-3.2-4.07-1.19-.53-3.74-.75-4.43.7-.33.69-.51,1.47-.79,2.19q-.6,1.57-1.26,3.12C134.56,81,134.65,81.24,134.11,82.38Z"/><path class="cls-7" d="M99.18,40.22c.92,1.67,2.3,3.05,3.29,4.7,3.61,6,1.47,14.7,6.21,19.9,1.66,1.82,3.95,2.94,5.73,4.63a19.31,19.31,0,0,1,4.44,7.61,56.57,56.57,0,0,1,1,35.36c-.63,2.08-1.39,4.19-1.23,6.36s1.52,4.43,3.66,4.8a4.77,4.77,0,0,0,4.49-2.13,11.72,11.72,0,0,0,1.77-4.89c1.59-8.72.76-17.7-.45-26.49-1.46-10.71-3.53-21.51-8.42-31.15-3.51-6.9-8.37-13-13.19-19.07A18.29,18.29,0,0,0,102,35.48c-.66-.41-1.85-1.13-2.66-.94s-1,1.36-1,2A6.43,6.43,0,0,0,99.18,40.22Z"/></g><g id="shirt"><path class="cls-2" d="M160.57,157.94a93.36,93.36,0,0,1-25,18.56A93.22,93.22,0,0,1,93.3,186.6c-2,0-3.89-.06-5.81-.18A92.66,92.66,0,0,1,45,173.11q-2.45-1.49-4.79-3.12a90.88,90.88,0,0,1-9.43-7.49,45.57,45.57,0,0,1,2.92-4.63c3.89-5.42,12.7-9.24,20.26-13.4,9.44-5.19,17.45-10.11,17.45-10.19,6,6.12,12.82,7.81,21.36,7.95s16.06-2.45,22.22-8.37c10.41,3.77,21.14,7.46,31.55,11.24,3.49,1.27,7.1,2.6,9.78,5.17A16,16,0,0,1,160.57,157.94Z"/><g class="cls-8"><path class="cls-9" d="M68.57,138.37c8.89,5.3,19.23,8.45,29.56,7.85s20.58-5.14,27.15-13.14l-9.21-2.83a7.41,7.41,0,0,0-4.27-.42,9,9,0,0,0-2.87,1.95c-4.3,3.56-10.08,5-15.66,4.87s-11-1.54-16.4-3.16a20.27,20.27,0,0,0-5.79-1.16,7.05,7.05,0,0,0-4.26,1.32c-.4.3-1.11.81-1.14,1.36a2.81,2.81,0,0,0,.88,1.82A8.81,8.81,0,0,0,68.57,138.37Z"/><rect class="cls-9" x="89.62" y="156.26" width="7.36" height="7.36" transform="translate(140.42 -19.13) rotate(45)"/><rect class="cls-9" x="89.62" y="174.47" width="7.36" height="7.36" transform="translate(153.3 -13.79) rotate(45)"/></g></g><path class="cls-4" d="M169.18,147.58a93.6,93.6,0,0,1-33.62,28.92c-3.46-1.4-6.68-3.23-8.92-6.15-3.68-4.8-3.81-11.35-3.78-17.41q0-4.92,0-9.84,0-6.27.07-12.54c0-5,0-10.18-1-15.1-.19-.88-.41-1.76-.67-2.62a72.68,72.68,0,0,0-3.23-8c-1.66-3.78-3.2-7.57-3.26-11.65-.11-7.81,5.17-15.93,1.78-23-1.92-4-6.24-6.41-8.19-10.39-2.45-5-.84-11.65-4.52-15.8-3.33-3.74-9.6-3.69-12.82-7.52a8.83,8.83,0,0,1-1.93-5.26,12,12,0,0,1,.3-3.58,27.47,27.47,0,0,1,3.22-8.26v.26A24.62,24.62,0,0,1,101,18.54h0a34.22,34.22,0,0,1,8.92,1.9,36.93,36.93,0,0,1,8,3.74,0,0,0,0,1,0,0,51.26,51.26,0,0,1,12.39,11c5.43,6.55,9.58,14,13.7,21.48,1.09,2,2.19,4,3.24,6h0c4.23,8.14,7.74,16.74,7.19,25.78-.21,3.34-.94,6.86.43,9.91.72,1.61,2,2.92,2.84,4.46a15.16,15.16,0,0,1,1.58,8.31c-.13,3-.69,6-.89,9A35.11,35.11,0,0,0,169.18,147.58Z"/><path class="cls-10" d="M88.46,28.54C87.15,31.65,84.32,34,81.51,36s-5.76,4.16-7.5,7.07c-1.6,2.67-2.05,5.81-3.54,8.52-2,3.54-5.5,6-8.71,8.66s-6.34,5.8-6.93,9.75c-.25,1.68,0,3.39-.2,5.07a5.36,5.36,0,0,1-2.47,4.32,4.11,4.11,0,0,1-4.33-.36,3.47,3.47,0,0,1-1.11-3.92,10.46,10.46,0,0,0-6.55,3.71c.3-.38.28-1.51.37-2,.14-.7.3-1.39.46-2.09.31-1.36.67-2.72,1.07-4.07a76.27,76.27,0,0,1,2.85-8,81.07,81.07,0,0,1,8.21-14.93A85.64,85.64,0,0,1,64.36,34.64,86.79,86.79,0,0,1,78.18,23.9q1.89-1.17,3.85-2.27c1-.56,2.62-1.81,3.84-1.76s2.19,1.67,2.61,2.61A7.56,7.56,0,0,1,89,26.6,7.38,7.38,0,0,1,88.46,28.54Z"/></g></g></g></svg>