<svg xmlns="http://www.w3.org/2000/svg" xmlns:xlink="http://www.w3.org/1999/xlink" viewBox="0 0 186.6 226.28"><defs><style>.cls-1{fill:#f7b592;}.cls-2{fill:#f2e4da;}.cls-3{fill:#e9d7de;}.cls-4{clip-path:url(#clip-path);}.cls-5{fill:#280c36;}.cls-6{fill:#09030d;}.cls-7{clip-path:url(#clip-path-2);}.cls-8{fill:#efc7b0;}.cls-9{clip-path:url(#clip-path-3);}.cls-10{fill:#937098;}.cls-11{fill:#221c25;}</style><clipPath id="clip-path"><circle id="container" class="cls-1" cx="93.3" cy="93.3" r="93.3"/></clipPath><clipPath id="clip-path-2"><path class="cls-2" d="M93.29,200.51a59.05,59.05,0,0,1-11.05-1.27c-10.56-2.26-19-8.89-21.76-19.59-4-15.46,1.73-30.9,10-43.86,1.72-2.71,3.64-5.91,2.53-8.92-1.17-3.17-5.33-3.65-8-5.67-5.33-4-9.41-11.37-13.19-20.5A13.64,13.64,0,0,1,37.45,89.58,13.63,13.63,0,0,1,47.86,74.73,47.68,47.68,0,0,1,66.72,36.24c13.54-10,34.11-11,48.76-2.83C130,41.49,139,58.14,138.74,74.73a13.64,13.64,0,0,1,10.41,14.85,13.64,13.64,0,0,1-14.33,11.12c-3.79,9.13-7.86,16.51-13.19,20.5-2.71,2-6.87,2.5-8,5.67-1.11,3,.8,6.21,2.53,8.92,10.17,16,19.2,44.16.91,58.33C110.76,199,101.81,200.68,93.29,200.51Z"/></clipPath><clipPath id="clip-path-3"><path class="cls-3" d="M89.35,225.41c-22.79-6.49-44.6-17.63-61.21-34.52-1.95-2-3.9-4.2-4.35-6.93a13.88,13.88,0,0,1,.84-6.19c2.12-7,4.75-14,9-19.9,3.9-5.42,12.7-9.24,20.26-13.4,9.47-5.21,17.5-10.15,17.45-10.19,6,6.12,12.82,7.81,21.36,7.95s16.06-2.45,22.22-8.37c10.41,3.77,21.14,7.46,31.55,11.24,3.49,1.26,7.1,2.6,9.79,5.17,3.08,2.94,4.6,7.23,4.93,11.48.5,6.6-1.66,13.2-5,18.9s-7.88,10.62-12.48,15.38c-6.67,6.91-13.63,13.61-21.48,19.14C112.42,222.08,100.88,228.7,89.35,225.41Z"/></clipPath></defs><g id="Layer_2" data-name="Layer 2"><g id="Sue"><g id="Sue-2" data-name="Sue"><circle id="container-2" data-name="container" class="cls-1" cx="93.3" cy="93.3" r="93.3"/><g class="cls-4"><g id="profile"><path class="cls-5" d="M34.44,80.91c-2.2,6.67-4.42,13.39-5.29,20.37-.76,6.08-.5,12.35-2.31,18.2C25.11,125.1,21.59,130,19,135.24a52.6,52.6,0,0,0-5.39,20.87c-.24,5.5.76,11.71,5.21,14.94s10.5,2.25,16,1.9C46.65,172.2,58.42,175,70,177.74c16.3,3.81,32.75,7.43,49.48,8.17s33.88-1.55,48.85-9c-2.82-3.08-3.17-7.75-2.34-11.84s2.69-7.92,3.78-11.95c3.89-14.45-2.4-29.74-10.71-42.19s-18.82-23.57-25-37.22c-3.82-8.49-5.9-17.85-11.16-25.53-7.86-11.47-22.29-17.59-36.17-16.9A50.3,50.3,0,0,0,70.38,35c-5.13,2.09-9.61,5.08-14.21,8.11-2.65,1.75-5.37,3.42-7.4,5.91-3.05,3.75-5.27,8.35-7.24,12.73a178.45,178.45,0,0,0-6.39,17.06C34.91,79.49,34.67,80.2,34.44,80.91Z"/><path class="cls-6" d="M42.88,105c1.39,5.07,3.71,10.19,2.68,15.33-1,4.93-5,9.64-3.43,14.44.91,2.76,3.53,4.81,4.56,7.53,1.37,3.65-.36,7.6-1.82,11.22A82.25,82.25,0,0,0,40.09,198c.59,3.38,1.76,7.19,5.14,8.64s7.51-.14,10.91,1.2c2.23.88,3.87,2.92,6.26,3.29s4.5-.94,6.12-2.47,3-3.34,4.92-4.5c2.71-1.6,6.15-1.67,9.37-1.45s6.5.67,9.61-.08,6.07-3.12,6.09-6.08-2.88-5.37-5.71-6.94-6-3-7.45-5.77c-2-3.87.46-8.44-.13-12.68-1-6.79-9.41-11.45-9.4-18.29,0-3.35,2.11-6.36,3-9.59a14.26,14.26,0,0,0-3-13c-1.71-2-4.13-4-3.67-6.51.31-1.71,1.92-2.94,2.71-4.52a6.82,6.82,0,0,0-.69-6.56,22.47,22.47,0,0,0-5-5.08c0-.3-1.62-1.35-1.9-1.58l-2-1.66-3.9-3.24-7.91-6.58c-1.86-1.55-3.86-3.83-6.67-3.45a5.59,5.59,0,0,0-4.38,4.07C41.53,98.31,42,101.86,42.88,105Z"/><path class="cls-5" d="M43,89.51C36.3,75.94,40.29,58.86,46.75,46,54.2,31.17,66.5,20.31,83.35,18a59.25,59.25,0,0,1,29.33,3.89,59.32,59.32,0,0,1,23.64,16.31c11.38,13.29,14.93,33,7,48.94-3.36,6.78-8.88,12.87-16.21,15.71-7.88,3-16.78,2-25.22,1l-15.91-2c-5.13-.65-10.37-1.65-15.54-1.88-3.14-.14-5.76.9-8.75,1.58-3.32.75-6.57-.35-9.4-2A23.89,23.89,0,0,1,43,89.51Z"/><path class="cls-6" d="M121.83,115.52a5.06,5.06,0,0,1,2.69-.63c1.42.18,2.44,1.42,3.28,2.58a29.89,29.89,0,0,1,5.15,10c.91,3.66.55,7.79-1.71,10.8a13.82,13.82,0,0,1-7.58,4.65c-2.7.73-5.73.89-8.14-.52-3.14-1.83-4.37-5.81-4.41-9.45a22.35,22.35,0,0,1,2.09-9.66c1-2,1.89-3.81,3.79-5.06A35.79,35.79,0,0,1,121.83,115.52Z"/><path class="cls-2" d="M93.29,200.51a59.05,59.05,0,0,1-11.05-1.27c-10.56-2.26-19-8.89-21.76-19.59-4-15.46,1.73-30.9,10-43.86,1.72-2.71,3.64-5.91,2.53-8.92-1.17-3.17-5.33-3.65-8-5.67-5.33-4-9.41-11.37-13.19-20.5A13.64,13.64,0,0,1,37.45,89.58,13.63,13.63,0,0,1,47.86,74.73,47.68,47.68,0,0,1,66.72,36.24c13.54-10,34.11-11,48.76-2.83C130,41.49,139,58.14,138.74,74.73a13.64,13.64,0,0,1,10.41,14.85,13.64,13.64,0,0,1-14.33,11.12c-3.79,9.13-7.86,16.51-13.19,20.5-2.71,2-6.87,2.5-8,5.67-1.11,3,.8,6.21,2.53,8.92,10.17,16,19.2,44.16.91,58.33C110.76,199,101.81,200.68,93.29,200.51Z"/><g class="cls-7"><path class="cls-8" d="M100.4,126.71c-5.74,2.44-8.19,9.3-7.68,15.52.58,6.92-.39,13.78-.24,20-1.93-2.14-8.56-7.07-10.41-9.28s-3.66-4.46-5.41-6.74-3.49-4.62-5.17-7-3.29-4.73-4.86-7.14q-1.17-1.81-2.31-3.63a27.68,27.68,0,0,1-2.17-3.77c-.31-.73-.83-1.94.31-2.15a5,5,0,0,1,2.76.59,55.25,55.25,0,0,0,8,2.64,61.82,61.82,0,0,0,8.33,1.48,68.25,68.25,0,0,0,8.46.37,72.32,72.32,0,0,0,8.44-.65A8.08,8.08,0,0,0,100.4,126.71Z"/><path class="cls-8" d="M128.47,114.47a84.32,84.32,0,0,1-11.8,15.16,54.27,54.27,0,0,0,15.15-17.38,29.93,29.93,0,0,0,3.1-7.74,17.14,17.14,0,0,0,.37-5.2c0-.44-.09-.87-.17-1.31,0-.21-.09-.43-.14-.64a1.72,1.72,0,0,0-.16-.61c-.3-.33-.37.53-.38.64-.05.45-.11.89-.18,1.34a38,38,0,0,1-1.17,5.26,46.08,46.08,0,0,1-1.86,5.08,50.46,50.46,0,0,1-2.42,4.82C128.7,114.09,128.59,114.28,128.47,114.47Z"/><path class="cls-8" d="M134.11,82.38a9.7,9.7,0,0,0,2.55-2.53c.92-1.27,2.07-2.55,3.61-2.82a8.09,8.09,0,0,1,4.47.83c0-1.79-1.56-3.35-3.2-4.08-1.19-.53-3.74-.75-4.43.7-.33.69-.51,1.48-.79,2.2-.4,1-.82,2.09-1.26,3.12S134.65,81.24,134.11,82.38Z"/><path class="cls-8" d="M99.18,40.21c.93,1.68,2.3,3.06,3.29,4.7,3.61,6.05,1.47,14.7,6.21,19.91,1.66,1.82,3.95,2.93,5.74,4.63a19.45,19.45,0,0,1,4.43,7.6,56.6,56.6,0,0,1,1,35.37c-.63,2.08-1.39,4.19-1.23,6.36s1.52,4.43,3.66,4.8a4.79,4.79,0,0,0,4.49-2.13,11.72,11.72,0,0,0,1.77-4.89c1.59-8.73.76-17.7-.45-26.49-1.46-10.71-3.52-21.51-8.42-31.15-3.5-6.91-8.37-13-13.19-19.07A18.51,18.51,0,0,0,102,35.47c-.66-.4-1.84-1.13-2.66-.93s-1,1.36-1,2A6.39,6.39,0,0,0,99.18,40.21Z"/></g><path class="cls-3" d="M89.35,225.41c-22.79-6.49-44.6-17.63-61.21-34.52-1.95-2-3.9-4.2-4.35-6.93a13.88,13.88,0,0,1,.84-6.19c2.12-7,4.75-14,9-19.9,3.9-5.42,12.7-9.24,20.26-13.4,9.47-5.21,17.5-10.15,17.45-10.19,6,6.12,12.82,7.81,21.36,7.95s16.06-2.45,22.22-8.37c10.41,3.77,21.14,7.46,31.55,11.24,3.49,1.26,7.1,2.6,9.79,5.17,3.08,2.94,4.6,7.23,4.93,11.48.5,6.6-1.66,13.2-5,18.9s-7.88,10.62-12.48,15.38c-6.67,6.91-13.63,13.61-21.48,19.14C112.42,222.08,100.88,228.7,89.35,225.41Z"/><g class="cls-9"><path class="cls-10" d="M68.58,138.37c8.88,5.3,19.22,8.44,29.55,7.85s20.58-5.15,27.15-13.14l-9.21-2.83a7.33,7.33,0,0,0-4.27-.42,9,9,0,0,0-2.87,1.95c-4.3,3.56-10.08,5-15.66,4.87s-11-1.55-16.4-3.16a19.93,19.93,0,0,0-5.79-1.16,7.07,7.07,0,0,0-4.26,1.32c-.4.3-1.11.8-1.14,1.36a2.82,2.82,0,0,0,.89,1.82A8.39,8.39,0,0,0,68.58,138.37Z"/><rect class="cls-10" x="89.62" y="156.26" width="7.36" height="7.36" transform="translate(140.42 -19.13) rotate(45)"/><rect class="cls-10" x="89.62" y="174.47" width="7.36" height="7.36" transform="translate(153.3 -13.79) rotate(45)"/></g><path class="cls-5" d="M92.64,19.62v-.26a27.47,27.47,0,0,0-3.22,8.26c-.7,3-.37,6.45,1.63,8.84,3.22,3.83,9.49,3.78,12.82,7.52,3.68,4.14,2.07,10.82,4.52,15.8,2,4,6.27,6.4,8.19,10.39,3.4,7-1.89,15.16-1.78,23,.11,7,4.47,13,6.49,19.7,1.73,5.7,1.72,11.76,1.69,17.72l-.12,22.38c0,6.05.1,12.6,3.78,17.41,3.41,4.45,9.11,6.37,14.46,8.06,2.72.86,5.58,1.73,8.38,1.18,3.21-.63,5.76-3,7.94-5.47a67.5,67.5,0,0,0,14-24.65,35,35,0,0,1-13-29.29c.39-5.86,2.18-12.19-.7-17.3-.87-1.54-2.12-2.85-2.84-4.46-1.37-3-.64-6.57-.43-9.91.69-11.3-5-21.91-10.43-31.82-4.12-7.44-8.27-14.93-13.7-21.47S118,23.07,109.9,20.44C103.51,18.36,99.11,17.76,92.64,19.62Z"/><path class="cls-11" d="M88.47,28.54c-1.32,3.11-4.15,5.4-7,7.48S75.75,40.18,74,43.09c-1.6,2.66-2.05,5.81-3.54,8.52-2,3.54-5.5,6-8.71,8.66s-6.33,5.8-6.93,9.75c-.25,1.67,0,3.39-.2,5.07a5.36,5.36,0,0,1-2.47,4.32A4.13,4.13,0,0,1,47.83,79a3.45,3.45,0,0,1-1.1-3.92,10.51,10.51,0,0,0-6.56,3.72c.3-.38.28-1.51.37-2,.15-.69.3-1.39.46-2.08.32-1.37.67-2.73,1.07-4.08a77.92,77.92,0,0,1,2.85-8,81.32,81.32,0,0,1,8.21-14.92A86.27,86.27,0,0,1,78.18,23.9c1.26-.79,2.54-1.54,3.85-2.27,1-.56,2.62-1.82,3.84-1.76s2.19,1.67,2.61,2.6A7.6,7.6,0,0,1,89,26.6,7.76,7.76,0,0,1,88.47,28.54Z"/></g></g></g></g></g></svg>